<svg xmlns="http://www.w3.org/2000/svg" xmlns:xlink="http://www.w3.org/1999/xlink" version="1.1" viewBox="0 0 992.1 226.8" enable-background="new 0 0 992.1 226.8" xml:space="preserve">
<g>
	<path fill="#FF4B4A" d="M878.7,226.8H113.4C50.8,226.8,0,176,0,113.4v0C0,50.8,50.8,0,113.4,0l765.4,0c62.6,0,113.4,50.8,113.4,113.4
		v0C992.1,176,941.4,226.8,878.7,226.8z"/>
	<path fill="#FFFFFF" d="M275.5,100.2c-4.3,0-9.6,1.1-15.1,3.6c-3.1,1.4-5.5,2.6-7.6,2.6c-5.7,0-9.3-6.7-9.3-11.5c0-3.4,2-6,6.5-8.6
		c7.6-4.1,17.2-6.2,27.6-6.2c13.1,0,22.7,3.3,28.2,9.6c3.8,4.5,5.7,11.5,5.7,20.3v44.5c0,6.9-3.3,10-11.8,10
		c-7.2,0-10.1-2.2-10.1-7.4v-1.4c-5.3,6-12.7,8.9-22.5,8.9c-16.7,0-26.8-9.1-26.8-23.6c0-16.3,13.1-25.6,47.9-28.7V111
		C288,104.2,284.9,100.2,275.5,100.2z M264.8,138.9c0,4.1,2.7,7.4,9.6,7.4c4.7,0,9.4-1.7,13.6-5.1v-14.8
		C272.4,128.5,264.8,131.8,264.8,138.9z"/>
	<path fill="#FFFFFF" d="M215.9,49.5c-8.5,0-12.7,3.4-12.7,10.1v33.7c0,0.4-0.2,0.8-0.6,1.1c-6.6,4.5-14.6,7.1-23.2,7.1
		c-8.6,0-16.6-2.6-23.2-7.1c-0.4-0.2-0.6-0.6-0.6-1.1V59.6c0-6.7-4.2-10.1-12.7-10.1c-8.5,0-12.7,4.4-12.7,10.1v95
		c0,6.7,4.2,10.1,12.7,10.1c8.5,0,12.7-3.4,12.7-10.1v-36.2c7.2,3.3,15.3,5.1,23.8,5.1c8.5,0,16.5-1.8,23.8-5.1v36.2
		c0,6.7,4.2,10.1,12.7,10.1s12.7-3.4,12.7-10.1v-95C228.5,54,224.4,49.5,215.9,49.5z"/>
	<path fill="#FFFFFF" d="M349.6,154.8c0,6.5-4,9.8-12.2,9.8c-8.2,0-12.2-3.3-12.2-9.8V90.4c0-6.5,3.8-9.8,11.8-9.8
		c8.4,0,11.5,4.1,11.3,9.8V94c3.8-7.9,11.3-13.6,20.9-13.6c6.9,0,10,3.3,10,10.8c0,8.6-3.8,10.8-11,11.2c-9.1,0.4-13.9,2-17.4,6.5
		c-0.7,0.9-1,2-1,3.1L349.6,154.8z"/>
	<path fill="#FFFFFF" d="M410.2,90.4v2c4.3-7.2,13.1-11.8,24.4-11.8c12.2,0,20.1,5.1,24.5,14.6c4.5-8.9,14.1-14.6,26.3-14.6
		c10.1,0,17.8,3.6,22.7,11.2c3.3,5.1,4.9,12.2,4.9,20.8v42.1c0,6.5-4,9.8-12.2,9.8c-8.2,0-12.2-3.3-12.2-9.8v-38.1
		c0-4.1-0.5-7.8-2.4-10.1c-2-3.1-5.7-4.7-10.5-4.7c-5.8,0-10.5,2.4-13.4,6.4v46.6c0,6.5-4,9.8-12.2,9.8c-8.2,0-12.2-3.3-12.2-9.8
		v-38.4c0-4.1-0.7-7.6-2.4-10c-2.2-3.1-5.8-4.7-10.5-4.7c-5.8,0-10.7,2.4-13.6,6.4v46.6c0,6.5-4,9.8-12.2,9.8
		c-8.2,0-12.2-3.3-12.2-9.8V90.4c0-6.5,3.8-9.8,11.8-9.8C407.3,80.6,410.4,84.8,410.2,90.4z"/>
	<path fill="#FFFFFF" d="M565.1,79.8c25.8,0,41.9,17,41.9,42.6c0,26.3-16.7,43.1-42.6,43.1c-25.8,0-41.7-16.9-41.7-42.6
		C522.7,96.8,539.4,79.8,565.1,79.8z M565,145.9c10.5,0,17-8.9,17-23c0-14.7-6.9-23.4-17.4-23.4c-10.5,0-17,8.7-17,22.9
		C547.6,137,554.5,145.9,565,145.9z"/>
	<path fill="#FFFFFF" d="M639.7,90.4v2c4.9-7.6,13.1-11.8,24.5-11.8c10.3,0,18.5,3.4,23.4,11.2c3.4,5.1,5.1,12.2,5.1,20.8v42.1
		c0,6.5-4,9.8-12.2,9.8c-8.2,0-12.2-3.3-12.2-9.8v-38.1c0-4.1-0.7-7.4-2.4-9.8c-2.4-3.4-6-5.1-11-5.1c-6,0-10.5,2.4-13.9,6.2v46.9
		c0,6.5-4,9.8-12.2,9.8c-8.2,0-12.2-3.3-12.2-9.8V90.4c0-6.5,3.8-9.8,11.8-9.8C636.8,80.6,639.9,84.8,639.7,90.4z"/>
	<path fill="#FFFFFF" d="M776.8,150.1c0,4.3-2.9,6.5-6.4,8.7c-6.4,4-15.1,6.4-25.9,6.4c-27,0-42.3-15.6-42.3-42.1
		c0-26.3,15.1-43.1,39.4-43.1c24,0,37.4,16.5,37.4,35.7c0,12.7-6.2,14.1-13.8,14.1h-39.5c2,10.1,8.2,15.6,19.4,15.6
		c5.8,0,10.5-1.7,14.9-3.8c2.9-1.4,4.9-2.4,7.1-2.4C772.7,139.2,776.8,145.2,776.8,150.1z M725.4,114h30.4c0-8.7-4.5-15.6-14.7-15.6
		C732.2,98.4,726.9,103.8,725.4,114z"/>
	<path fill="#FFFFFF" d="M865.8,88.4c0,3.1-1.1,8.4-2.9,14.7c-6.5,24.1-20.9,57.2-40.1,83.5c-7.7,9.3-11.6,11.3-19.1,8.8
		c-3.9-1.3-7-4.6-7.7-8.6c-0.8-4.8,3.1-9.2,5.9-11.9c5.5-5.5,9.9-11.5,11.4-14.2l-27.4-64.9c-1.1-2.6-2.2-5.1-2.2-7.6
		c0-4,2.7-7.4,11.7-7.4c8.9,0,11.8,3.1,14.3,9.8l17.4,47.2c4.3-9.6,9.6-23.6,15.1-46.9c1.2-5.5,2.4-10.1,12.5-10.1
		C863.8,80.6,865.8,84.3,865.8,88.4z"/>
</g>
</svg>

