<?xml version="1.0" encoding="utf-8"?>
<!-- Generator: Adobe Illustrator 22.1.0, SVG Export Plug-In . SVG Version: 6.00 Build 0)  -->
<svg version="1.1" id="Layer_1"
	xmlns="http://www.w3.org/2000/svg"
	xmlns:xlink="http://www.w3.org/1999/xlink" x="0px" y="0px" viewBox="0 0 512 512" style="enable-background:new 0 0 512 512;" xml:space="preserve">
	<g>
		<path fill="#fff" d="M131.7,481H38.4V180.6h93.3V481z M85,139.6c-29.8,0-54-24.7-54-54.5c0-29.8,24.2-54,54-54c29.8,0,54,24.2,54,54
		C139.1,114.9,114.9,139.6,85,139.6z M480.9,481h-93.1V334.7c0-34.9-0.7-79.6-48.5-79.6c-48.5,0-55.9,37.9-55.9,77V481h-93.2V180.6
		h89.5v41h1.3c12.5-23.6,42.9-48.5,88.3-48.5C463.6,173,481,235.2,481,316v165H480.9z"/>
	</g>
</svg>
