<?xml version="1.0" encoding="UTF-8" standalone="no"?>
<!-- Created with Inkscape (http://www.inkscape.org/) -->

<svg width="157.427mm" height="50.271mm" viewBox="0 0 157.427 50.271" version="1.1" id="svg5" inkscape:version="1.1 (c68e22c387, 2021-05-23)" sodipodi:docname="macavelogo.svg"
   xmlns:inkscape="http://www.inkscape.org/namespaces/inkscape"
   xmlns:sodipodi="http://sodipodi.sourceforge.net/DTD/sodipodi-0.dtd"
   xmlns="http://www.w3.org/2000/svg"
   xmlns:svg="http://www.w3.org/2000/svg">
   <sodipodi:namedview id="namedview7" pagecolor="#ffffff" bordercolor="#666666" borderopacity="1.0" inkscape:pageshadow="2" inkscape:pageopacity="0.0" inkscape:pagecheckerboard="0" inkscape:document-units="mm" showgrid="false" inkscape:snap-global="false" fit-margin-top="0" fit-margin-left="0" fit-margin-right="0" fit-margin-bottom="0" inkscape:zoom="1" inkscape:cx="363" inkscape:cy="96" inkscape:window-width="954" inkscape:window-height="1012" inkscape:window-x="962" inkscape:window-y="32" inkscape:window-maximized="0" inkscape:current-layer="layer1" />
   <defs id="defs2" />
   <g inkscape:label="Calque 1" inkscape:groupmode="layer" id="layer1" transform="translate(-26.07992,-123.10899)">
      <path style="fill:#FDDB3A;stroke-width:0.264584" d="m 27.641484,148.90325 c 0,-14.73369 0.08915,-22.18559 0.264119,-22.07745 0.145265,0.0898 0.528945,-0.0223 0.852621,-0.24897 l 0.588502,-0.4122 -0.654184,-0.0313 c -0.359801,-0.0172 -0.74348,-0.0172 -0.852621,0 -0.10914,0.0172 -0.198437,-0.0877 -0.198437,-0.23325 0,-0.17578 25.840959,-0.26458 76.993716,-0.26458 h 76.9937 v 22.75424 22.75424 H 104.6352 27.641484 Z M 69.974795,148.3897 V 128.54588 H 50.263347 30.551899 v 19.84382 19.84382 h 19.711448 19.711448 z m -25.141644,16.80034 c -2.072482,-0.65315 -3.942626,-3.04768 -3.956697,-5.06616 l -0.0058,-0.83358 -2.358956,-0.0925 c -2.116494,-0.083 -2.474764,-0.17405 -3.48568,-0.88622 -0.641836,-0.45216 -1.388338,-1.30614 -1.734631,-1.98438 -0.561235,-1.09922 -0.608032,-1.5258 -0.609548,-5.55627 -0.0019,-4.95815 0.231094,-5.84511 1.926101,-7.33335 1.351733,-1.18684 2.486293,-1.4123 6.492711,-1.29024 l 3.486223,0.10621 1.03731,0.93715 c 1.685259,1.52254 4.113679,1.8576 6.082879,0.83928 0.726842,-0.37587 2.242734,-1.93715 2.431935,-2.50477 0.06877,-0.2063 0.390829,-0.15189 1.022783,0.1728 0.833366,0.42818 2.778521,0.57873 5.155737,0.39903 0.291042,-0.022 1.217983,0.0269 2.059865,0.10863 l 1.530701,0.14862 -0.07549,9.58741 -0.07549,9.5874 -0.79611,1.28718 c -0.564787,0.91316 -1.177445,1.48358 -2.108479,1.96312 -1.296437,0.66775 -1.394375,0.67663 -8.067427,0.73187 -5.236897,0.0434 -7.024047,-0.0289 -7.951923,-0.32126 z m 2.069989,-4.4178 c 0.230189,-0.23019 0.3175,-2.15576 0.3175,-7.00217 0,-6.48289 -0.01648,-6.69349 -0.546079,-6.97693 -0.405339,-0.21693 -0.644006,-0.21098 -0.926041,0.0231 -0.312199,0.2591 -0.379962,1.52856 -0.379962,7.11804 0,3.74148 0.07937,6.88207 0.176389,6.97908 0.28081,0.28081 1.012268,0.20482 1.358193,-0.14111 z m 6.270622,-6.79743 c 0,-6.22867 -0.0476,-7.01268 -0.440842,-7.26073 -0.319914,-0.2018 -0.555795,-0.18267 -0.859896,0.0697 -0.362465,0.30082 -0.419053,1.26641 -0.419053,7.15048 0,3.74148 0.08484,6.88754 0.188536,6.99123 0.103695,0.10369 0.490648,0.1533 0.859895,0.11024 l 0.67136,-0.0783 z m 6.208397,6.60316 c 0.166971,-0.31199 0.273891,-2.99008 0.273891,-6.86029 0,-5.4186 -0.0609,-6.40942 -0.415774,-6.76429 -0.522176,-0.52218 -0.762941,-0.52218 -1.285117,0 -0.355558,0.35556 -0.415774,1.36335 -0.415774,6.95856 0,4.73606 0.08768,6.63047 0.3175,6.86029 0.476742,0.47674 1.21659,0.38251 1.525274,-0.19427 z m -18.511515,-9.9393 v -6.21773 l -1.785937,9.8e-4 c -1.958184,0.001 -3.202191,0.53665 -3.805873,1.6385 -0.454576,0.8297 -0.638675,6.89872 -0.252661,8.32925 0.177416,0.65748 0.625948,1.38093 1.10727,1.78594 0.710102,0.59751 1.04927,0.68077 2.773127,0.68077 l 1.964074,1e-5 z m 6.428987,-8.58828 c -0.465878,-0.28406 -1.030577,-0.87138 -1.254888,-1.30515 -0.575545,-1.11299 -0.769054,-1.16957 -2.227935,-0.65142 -1.103052,0.39177 -1.458659,0.41216 -2.37916,0.13637 -1.507617,-0.4517 -2.463184,-1.75146 -2.463184,-3.35043 0,-2.76492 2.644578,-4.34145 5.221372,-3.11266 0.95572,0.45575 0.965047,0.45448 1.452827,-0.19844 0.270012,-0.36143 0.74093,-0.98179 1.046484,-1.37859 1.056081,-1.37146 3.734494,-1.48265 4.89246,-0.20311 0.610562,0.67467 1.204322,0.66784 2.083802,-0.024 1.801917,-1.41739 3.759137,-1.11351 5.493443,0.85294 0.923702,1.04734 1.000024,1.08049 1.825417,0.79275 2.728906,-0.9513 5.278382,0.62889 5.278382,3.2716 0,2.14686 -1.946316,3.84381 -3.935492,3.43126 -1.209415,-0.25083 -2.288743,-0.25192 -3.480415,-0.004 -1.405778,0.29302 -3.082124,-0.26463 -4.084445,-1.35873 -0.750479,-0.81919 -0.9296,-0.89886 -1.424897,-0.63379 -0.311583,0.16676 -0.566515,0.54095 -0.566515,0.83155 0,1.00522 -0.765453,2.35403 -1.637723,2.88584 -1.112842,0.67848 -2.743294,0.68591 -3.839533,0.0175 z m 44.472406,23.2727 0.423463,-1.05834 1.655785,0.003 1.655792,0.003 0.44337,1.05565 c 0.31473,0.74935 0.60261,1.05564 0.99219,1.05564 0.30184,0 0.54881,-0.0854 0.54881,-0.18979 0,-0.10438 -0.67485,-1.95583 -1.49967,-4.11433 -1.425501,-3.73047 -1.533131,-3.92063 -2.176319,-3.84513 -0.61092,0.0717 -0.825082,0.46423 -2.204497,4.04038 -0.840313,2.17851 -1.527843,3.99422 -1.527843,4.03491 0,0.0407 0.284728,0.074 0.632729,0.074 0.49122,0 0.727437,-0.23669 1.05619,-1.05833 z m 1.241776,-3.36625 c 0.28652,-0.83279 0.624176,-1.61739 0.750342,-1.74356 0.129477,-0.12947 0.43176,0.38602 0.693967,1.18343 0.255515,0.77706 0.519495,1.56166 0.586635,1.74356 0.0875,0.23705 -0.25663,0.33073 -1.214917,0.33073 h -1.336973 z m 19.123367,3.77576 c 0.90031,-0.83439 0.95948,-2.26391 0.12586,-3.04055 -0.53918,-0.50233 -0.54726,-0.5648 -0.1323,-1.02334 0.704,-0.7779 0.57282,-2.28971 -0.25519,-2.94102 -0.57106,-0.4492 -1.07348,-0.54837 -2.77812,-0.54837 h -2.08099 v 4.10105 4.10106 h 2.21033 c 1.97948,0 2.28343,-0.0678 2.91041,-0.64883 z m -3.79782,-1.73243 v -1.32292 h 0.90882 c 1.52636,0 2.26618,0.41247 2.26618,1.26345 0,1.05693 -0.4485,1.38239 -1.905,1.38239 h -1.27 z m 0,-3.4396 v -1.32292 h 1.03669 c 1.56623,0 1.87373,0.20112 1.87373,1.22549 0,0.99614 -0.63733,1.42035 -2.13389,1.42035 -0.75545,0 -0.77653,-0.0359 -0.77653,-1.32292 z m 10.58333,1.7198 v -4.10105 h -0.66146 -0.66146 v 4.10105 4.10106 h 0.66146 0.66146 z m 10.31874,3.57189 c 0,-0.47877 -0.17639,-0.52917 -1.85208,-0.52917 h -1.85208 v -1.19063 -1.19063 h 1.45521 c 1.27881,0 1.4552,-0.0641 1.4552,-0.52917 0,-0.46502 -0.17639,-0.52917 -1.4552,-0.52917 h -1.45521 v -1.32292 -1.32292 h 1.85208 c 1.67569,0 1.85208,-0.0504 1.85208,-0.52917 0,-0.49203 -0.17639,-0.52916 -2.51354,-0.52916 h -2.51354 v 4.10105 4.10106 h 2.51354 c 2.33715,0 2.51354,-0.0371 2.51354,-0.52917 z m 6.08542,-1.19063 c 0,-1.3141 0.0892,-1.7198 0.37797,-1.7198 0.50021,0 0.94645,0.46975 1.98772,2.09244 0.71831,1.11939 0.99627,1.34716 1.644,1.34716 h 0.77954 l -1.20907,-1.69437 -1.20907,-1.69437 0.79883,-0.79883 c 1.03672,-1.03673 1.09798,-2.41652 0.14939,-3.36511 -0.57476,-0.57476 -0.87897,-0.64943 -2.64583,-0.64943 h -1.9964 v 4.10105 4.10106 h 0.66146 c 0.63771,0 0.66146,-0.0617 0.66146,-1.7198 z m 0,-3.96876 v -1.45522 h 1.04333 c 0.76238,0 1.1489,0.15073 1.43537,0.55973 0.71922,1.02684 -0.33194,2.33663 -1.88339,2.3468 -0.54568,0.004 -0.59531,-0.11744 -0.59531,-1.45131 z m 14.0229,5.15939 c 0,-0.47877 -0.17638,-0.52917 -1.85208,-0.52917 h -1.85208 v -1.19063 -1.19063 h 1.45521 c 1.27882,0 1.45521,-0.0641 1.45521,-0.52917 0,-0.46502 -0.17639,-0.52917 -1.45521,-0.52917 h -1.45521 v -1.32292 -1.32292 h 1.85208 c 1.6757,0 1.85208,-0.0504 1.85208,-0.52917 0,-0.49203 -0.17638,-0.52916 -2.51354,-0.52916 h -2.51354 v 4.10105 4.10106 h 2.51354 c 2.33716,0 2.51354,-0.0371 2.51354,-0.52917 z m 8.56032,-0.11966 c 0.52389,-0.48553 0.7001,-0.90565 0.7001,-1.66923 0,-1.34043 -0.38896,-1.81554 -1.97932,-2.41772 -1.52263,-0.57653 -1.99554,-1.12457 -1.56418,-1.81268 0.37621,-0.60015 1.27399,-0.72283 2.27014,-0.31021 0.65508,0.27135 0.83458,0.26362 1.03169,-0.0445 0.39019,-0.60984 -0.69667,-1.29899 -2.04863,-1.29899 -1.45942,0 -2.4722,0.86933 -2.4722,2.12204 0,1.24665 0.40011,1.75519 1.78292,2.26612 1.57321,0.58128 1.92124,0.84326 1.92124,1.44619 0,1.183 -1.6865,1.71357 -2.852,0.89722 -0.62873,-0.44038 -1.11674,-0.31779 -1.11674,0.28052 0,1.24434 3.14398,1.63757 4.32698,0.54119 z m 20.80842,-24.35438 V 128.54588 H 125.80185 72.88521 v 12.83234 12.83233 h 52.91664 52.91664 z m -55.79541,8.30404 c -1.41715,-0.42342 -2.07786,-0.98155 -2.73063,-2.30667 -0.57324,-1.16369 -0.6083,-1.53984 -0.6083,-6.52654 0,-5.00856 0.0324,-5.3524 0.60598,-6.42655 0.99734,-1.86778 2.83931,-2.67479 5.2723,-2.30994 2.36234,0.35425 3.779,2.59278 3.779,5.97138 v 1.04531 h -1.55667 -1.55668 l -0.19036,-1.78594 c -0.24121,-2.26312 -0.48171,-2.71199 -1.45309,-2.71199 -1.44837,0 -1.59319,0.57723 -1.59319,6.35002 0,5.64176 0.1633,6.35002 1.46411,6.35002 0.91392,0 1.43232,-0.95998 1.6234,-3.00627 l 0.164,-1.75624 h 1.58724 1.58723 l -0.17818,1.91715 c -0.31572,3.39705 -1.57365,5.01754 -4.13114,5.32183 -0.65484,0.0779 -1.5931,0.0214 -2.08502,-0.12557 z m -32.046213,-8.71205 v -8.74241 l 2.043948,0.0773 2.043942,0.0773 0.17117,1.05833 c 0.0941,0.58209 0.50357,3.17203 0.90984,5.75543 0.40628,2.5834 0.79536,4.64042 0.86463,4.57114 0.0693,-0.0693 0.55664,-2.65922 1.08304,-5.75543 l 0.95707,-5.62947 1.916303,-0.0777 1.9163,-0.0777 v 8.74287 8.74287 h -1.19062 -1.19063 l -0.0168,-6.01929 c -0.009,-3.31061 -0.10992,-5.78116 -0.22376,-5.49012 -0.11384,0.29104 -0.607893,2.99972 -1.097883,6.01929 l -0.89089,5.49012 h -1.22528 -1.22529 l -1.0335,-6.13686 -1.033496,-6.13686 -0.163857,1.96966 c -0.09012,1.08331 -0.179416,3.8449 -0.198437,6.13686 l -0.03458,4.1672 h -1.190624 -1.190625 z m 13.355783,8.15994 c 0.0787,-0.33449 0.86105,-3.99943 1.73849,-8.14432 0.87743,-4.14488 1.66308,-7.80607 1.74588,-8.13596 0.13308,-0.53024 0.3154,-0.59981 1.57202,-0.59981 1.25651,0 1.43764,0.0691 1.56067,0.59532 0.2568,1.09841 3.57506,16.65718 3.57506,16.76285 0,0.0574 -0.70635,0.10439 -1.56967,0.10439 -1.69761,0 -1.65052,0.0436 -2.0022,-1.85209 -0.34136,-1.84005 -0.35176,-1.85209 -1.60029,-1.85209 -1.27616,0 -1.18798,-0.12806 -1.63973,2.38126 l -0.21435,1.19063 -1.65452,0.079 c -1.60745,0.0767 -1.65044,0.0617 -1.51136,-0.52916 z m 5.9504,-5.7014 c -0.0163,-0.90143 -0.75623,-5.68149 -0.90199,-5.82725 -0.0814,-0.0814 -0.15027,-0.0388 -0.15309,0.0946 -0.003,0.13339 -0.17765,1.43316 -0.38849,2.88838 -0.50891,3.51251 -0.54154,3.3073 0.52592,3.3073 0.70875,0 0.92407,-0.10865 0.91765,-0.46302 z m 20.66322,2.77813 c 0.41252,-1.92816 1.25299,-5.86255 1.86773,-8.7431 l 1.1177,-5.23737 1.46366,0.078 1.46366,0.078 1.78553,8.3344 c 0.98204,4.58392 1.7909,8.48323 1.79745,8.66513 0.008,0.22867 -0.47122,0.33073 -1.55365,0.33073 h -1.56557 l -0.28651,-1.33594 c -0.15758,-0.73477 -0.28651,-1.56821 -0.28651,-1.85209 0,-0.44146 -0.18727,-0.51615 -1.29423,-0.51615 -1.43275,0 -1.39982,-0.0458 -1.75953,2.44741 l -0.18132,1.25677 h -1.65922 -1.65921 z m 5.27433,-2.88044 c 0,-1.06676 -0.61291,-5.3878 -0.79396,-5.5975 -0.0996,-0.11533 -0.3233,0.83717 -0.49717,2.11667 -0.17387,1.2795 -0.38446,2.71332 -0.46799,3.18626 -0.14824,0.83943 -0.12912,0.8599 0.80363,0.8599 0.79947,0 0.95549,-0.0923 0.95549,-0.56533 z m 7.83763,5.92316 c -0.13499,-0.46121 -3.07514,-16.57456 -3.07514,-16.85315 0,-0.0805 0.69586,-0.14639 1.54636,-0.14639 h 1.54635 l 0.74666,5.31237 c 0.41066,2.9218 0.82713,5.15423 0.9255,4.96095 0.0984,-0.19327 0.52043,-2.58384 0.93793,-5.31236 l 0.75908,-4.96096 h 1.53156 c 0.84236,0 1.53156,0.0456 1.53156,0.10131 0,0.22198 -3.2077,16.4663 -3.33682,16.89823 -0.10949,0.36624 -0.43514,0.46302 -1.55797,0.46302 -1.12394,0 -1.44777,-0.0964 -1.55507,-0.46302 z m 7.77277,-8.26826 v -8.73128 h 3.57188 3.57187 v 1.19063 1.19063 h -1.85208 -1.85208 v 2.38126 2.38126 h 1.32291 1.32292 v 1.19063 1.19062 h -1.32292 -1.32291 v 2.77814 2.77813 h 1.85208 1.85208 v 1.19063 1.19063 h -3.57187 -3.57188 z" id="path99" />
   </g>
</svg>
