<?xml version="1.0" encoding="utf-8"?>
<!-- Generator: Adobe Illustrator 22.1.0, SVG Export Plug-In . SVG Version: 6.00 Build 0)  -->
<svg version="1.1" id="Layer_1"
	xmlns="http://www.w3.org/2000/svg"
	xmlns:xlink="http://www.w3.org/1999/xlink" x="0px" y="0px" viewBox="0 0 512 512" style="enable-background:new 0 0 512 512;" xml:space="preserve">
	<g>
		<path fill="#ffffff" d="M417.7,36.7L52.1,247.5c-30.2,17.5-27.3,62.2,5,75.5l100.5,41.6v74.2c0,40.8,52,57.6,76.1,25.1l38.5-51.9l98.3,40.6
		c5.2,2.1,10.6,3.2,16.1,3.2c7.2,0,14.3-1.8,20.7-5.4c11.2-6.3,19-17.6,21-30.3l52.2-340.3C485.8,44.4,448.1,19.2,417.7,36.7
		L417.7,36.7z M199.7,438.8V382l32.2,13.3L199.7,438.8z M386.5,413.6l-135.2-55.8L374.6,180c9.4-13.6-8.3-29.4-20.8-18.6l-185.9,162
		l-94.7-39.2L438.7,73.2L386.5,413.6z"/>
	</g>
</svg>
