<svg xmlns="http://www.w3.org/2000/svg" xmlns:xlink="http://www.w3.org/1999/xlink" xmlns:svgjs="http://svgjs.com/svgjs" id="SvgjsSvg1001" version="1.1" viewBox="3.46 85.78 283.01 112.43">
  <defs id="SvgjsDefs1002"/>
  <g id="SvgjsG1008">
    <svg xmlns="http://www.w3.org/2000/svg" width="288" height="288" viewBox="1025 555 889 537">
      <path d="M1308.6265,797.6631Q1304.8264,797.6631,1302.6265,799.5631Q1300.4264,801.5631,1300.4264,806.0631Q1300.4264,806.96313,1301.0264,808.2631Q1301.6265,809.5631,1302.6265,810.7631Q1303.7263,812.0631,1305.2263,812.9631Q1306.7263,813.8631,1308.6265,813.8631Q1309.6265,813.8631,1310.6265,812.9631Q1311.6263,812.0631,1312.4264,810.8631Q1313.2263,809.5631,1313.6263,808.2631Q1314.1265,806.96313,1314.1265,806.0631Q1314.1265,801.5631,1312.4264,799.6631Q1310.7263,797.6631,1308.6265,797.6631 Z M1394.9264,801.1631Q1393.8264,801.1631,1393.2263,801.8631Q1392.6263,802.5631,1392.4264,803.3631Q1392.0264,804.3631,1392.1263,805.46313L1392.1263,812.6631Q1392.1263,813.7631,1392.1263,814.96313Q1392.2263,816.2631,1392.4264,817.3631Q1392.7263,818.46313,1393.2263,819.1631Q1393.8264,819.9631,1394.9264,819.9631Q1396.5264,819.9631,1397.1263,818.8631Q1397.8264,817.7631,1398.0264,816.3631Q1398.2263,814.7631,1397.8264,812.6631L1396.4264,802.6631Q1396.7263,802.3631,1396.7263,801.96313Q1396.7263,801.6631,1396.4264,801.46313Q1396.0264,801.1631,1394.9264,801.1631 Z M1478.2263,801.1631Q1477.1265,801.1631,1476.5264,801.8631Q1475.9264,802.5631,1475.7264,803.3631Q1475.3264,804.3631,1475.4264,805.46313L1475.4264,812.6631Q1475.4264,813.7631,1475.4264,814.96313Q1475.5264,816.2631,1475.7264,817.3631Q1476.0264,818.46313,1476.5264,819.1631Q1477.1265,819.9631,1478.2263,819.9631Q1479.8264,819.9631,1480.4264,818.8631Q1481.1265,817.7631,1481.3264,816.3631Q1481.5264,814.7631,1481.1265,812.6631L1479.7264,802.6631Q1480.0264,802.3631,1480.0264,801.96313Q1480.0264,801.6631,1479.7264,801.46313Q1479.3264,801.1631,1478.2263,801.1631 Z M1561.5264,801.1631Q1560.4264,801.1631,1559.8264,801.8631Q1559.2264,802.5631,1559.0264,803.3631Q1558.6265,804.3631,1558.7264,805.46313L1558.7264,812.6631Q1558.7264,813.7631,1558.7264,814.96313Q1558.8264,816.2631,1559.0264,817.3631Q1559.3264,818.46313,1559.8264,819.1631Q1560.4264,819.9631,1561.5264,819.9631Q1563.1265,819.9631,1563.7264,818.8631Q1564.4264,817.7631,1564.6265,816.3631Q1564.8264,814.7631,1564.4264,812.6631L1563.0264,802.6631Q1563.3264,802.3631,1563.3264,801.96313Q1563.3264,801.6631,1563.0264,801.46313Q1562.6265,801.1631,1561.5264,801.1631 Z M1637.1265,782.46313Q1640.9265,782.5631,1643.0264,782.96313Q1644.4265,782.96313,1646.5264,782.8631Q1648.7264,782.6631,1651.2264,782.6631Q1653.8264,782.6631,1656.4265,783.0631Q1659.1265,783.5631,1661.4265,784.7631Q1663.8264,786.0631,1665.6265,788.2631Q1667.4265,790.4631,1668.2264,793.96313Q1669.5264,799.3631,1668.6265,802.0631Q1667.7264,804.8631,1665.4265,805.8631Q1663.3956,806.7939,1660.5057,806.7939Q1659.9803,806.7939,1659.4265,806.7631Q1655.8264,806.5631,1651.7264,806.0631Q1651.3665,806.0181,1651.0222,806.0181Q1649.0714,806.0181,1647.6265,807.46313Q1645.9264,809.2631,1644.8264,812.1631Q1643.7264,815.0631,1643.1265,818.6631Q1642.5264,822.2631,1642.3264,825.7631Q1642.0264,829.3631,1642.0264,832.3631Q1641.9265,835.3631,1641.9265,836.96313Q1641.9265,838.5631,1642.1265,841.7631Q1642.4265,844.96313,1642.4265,848.66315Q1642.3264,852.3631,1641.7264,856.0631Q1641.1265,859.8631,1639.5264,862.7631Q1637.9265,865.6631,1635.1265,867.1631Q1633.314,868.1006,1630.7982,868.1006Q1629.2888,868.1006,1627.5264,867.7631Q1622.8264,867.2631,1620.7264,863.7631Q1618.5264,860.16315,1618.1265,854.96313Q1617.6265,849.7631,1618.4264,843.46313Q1619.2264,837.1631,1620.4264,831.1631Q1621.6265,825.0631,1622.8264,819.8631Q1624.0264,814.6631,1624.3264,811.5631Q1624.7264,809.3631,1624.4264,807.7631Q1624.1265,806.0631,1623.5264,804.96313Q1622.8264,803.8631,1621.8264,803.1631Q1620.7264,802.46313,1619.6265,802.1631Q1617.8931,801.62976,1615.6709,801.62976Q1614.5598,801.62976,1613.3264,801.7631Q1612.8765,801.53815,1612.0889,801.53815Q1611.8263,801.53815,1611.5264,801.5631Q1610.2264,801.7631,1608.7264,801.8631Q1607.9265,801.91315,1607.1265,801.91315Q1606.3264,801.91315,1605.5264,801.8631Q1603.9264,801.6631,1602.8264,800.8631Q1601.6265,799.96313,1601.1265,798.1631Q1600.5264,796.2631,1601.0264,792.96313Q1601.2264,790.7631,1602.0264,789.1631Q1602.9265,787.46313,1604.1265,786.3631Q1605.3264,785.2631,1606.8264,784.5631Q1608.3264,783.8631,1609.8264,783.4631Q1612.2494,782.84,1615.0559,782.84Q1616.3032,782.84,1617.6265,782.96313Q1618.8264,782.96313,1622.1265,782.8631Q1625.5264,782.6631,1629.4265,782.5631Q1633.4264,782.46313,1637.1265,782.46313 Z M1156.4264,777.5631Q1160.1263,777.8631,1163.1263,779.6631Q1165.7263,781.2631,1167.9264,784.4631Q1170.1263,787.7631,1170.5264,793.96313Q1170.5264,799.0631,1168.9264,801.6631Q1167.3264,804.2631,1164.9264,805.1631Q1163.1956,805.7862,1161.2732,805.7862Q1160.4187,805.7862,1159.5264,805.6631Q1156.6263,805.1631,1153.9264,804.2631Q1151.2263,803.2631,1149.1263,802.1631Q1147.0264,801.0631,1146.2263,800.5631Q1145.4264,800.5631,1143.9264,800.2631Q1142.4264,799.96313,1140.8264,799.96313Q1140.4863,799.9431,1140.1582,799.9431Q1138.8462,799.9431,1137.7263,800.2631Q1136.3264,800.7631,1135.9264,802.3631Q1135.6263,803.7631,1136.2263,805.0631Q1136.9264,806.3631,1138.0264,807.46313Q1139.2263,808.5631,1140.6263,809.5631Q1142.0264,810.6631,1143.1263,811.66315Q1144.1263,811.96313,1146.7263,813.1631Q1149.4264,814.46313,1152.6263,816.5631Q1155.9264,818.7631,1159.2263,821.6631Q1162.5264,824.6631,1165.0264,828.46313Q1167.5264,832.3631,1168.6263,836.96313Q1169.7263,841.6631,1168.4264,847.0631Q1167.1263,852.5631,1164.2263,856.4631Q1161.2263,860.46313,1157.4264,863.1631Q1153.6263,865.8631,1149.3264,867.3631Q1144.9264,868.8631,1140.8264,869.4631Q1137.3123,869.97736,1134.3123,869.97736Q1133.8123,869.97736,1133.3264,869.9631Q1129.8264,869.7631,1127.8264,869.0631Q1124.8264,868.5631,1121.0264,867.1631Q1117.2263,865.7631,1113.9264,863.0631Q1110.6263,860.3631,1108.5264,856.2631Q1106.3264,852.0631,1106.6263,846.0631Q1107.4264,839.8631,1110.4264,837.46313Q1113.1956,835.24774,1116.9873,835.24774Q1117.3032,835.24774,1117.6263,835.2631Q1121.9264,835.5631,1126.9264,837.8631Q1132.0264,840.1631,1137.0264,843.2631Q1141.6263,846.2631,1144.6263,846.2631Q1147.6263,846.1631,1149.3264,844.8631Q1151.3264,843.3631,1152.3264,840.3631Q1153.7263,836.7631,1152.6263,833.1631Q1152.1263,831.6631,1151.1263,829.96313Q1150.1263,828.2631,1148.3264,826.5631Q1146.5264,824.7631,1143.8264,823.0631Q1141.0264,821.3631,1137.0264,819.8631Q1126.4264,816.7631,1120.0264,813.2631Q1113.6263,809.6631,1111.0264,805.6631Q1108.3264,801.6631,1109.1263,797.3631Q1110.0264,793.0631,1113.8264,788.5631Q1115.7263,786.46313,1118.5264,784.9631Q1121.3264,783.3631,1124.6263,782.2631Q1128.0264,781.0631,1131.6263,780.2631Q1135.3264,779.46313,1138.8264,778.9631Q1147.1263,777.7631,1156.4264,777.5631 Z M1229.5818,761.12976Q1231.093,761.12976,1232.5264,761.2631Q1242.6263,762.1631,1251.7263,768.46313Q1255.0264,770.2631,1257.4264,772.6631Q1259.4264,774.6631,1260.6265,777.5631Q1261.9264,780.46313,1260.7263,783.9631Q1259.2263,788.1631,1257.1263,790.5631Q1255.0264,792.96313,1252.7263,794.0631Q1250.3264,795.2631,1247.9264,795.46313Q1246.4865,795.6431,1245.1184,795.6431Q1244.2064,795.6431,1243.3264,795.5631Q1241.0264,795.2631,1239.2263,794.96313Q1237.3264,794.5631,1236.2263,794.5631Q1235.4264,794.1631,1234.1263,793.5631Q1232.7263,792.8631,1230.9264,792.6631Q1230.155,792.53455,1229.31,792.53455Q1228.1836,792.53455,1226.9264,792.7631Q1224.6263,793.2631,1222.2263,794.8631Q1219.7263,796.5631,1217.1263,799.7631Q1214.4264,803.0631,1211.7263,808.4631Q1209.4264,814.2631,1209.9264,818.5631Q1210.5264,822.8631,1212.8264,825.8631Q1215.1265,828.96313,1218.5264,830.8631Q1221.9264,832.8631,1225.2263,833.96313Q1228.6263,835.1631,1231.2263,835.5631Q1233.8264,836.0631,1234.6265,836.0631Q1235.4264,836.0631,1237.4264,836.46313Q1239.4264,836.96313,1241.7263,837.9631Q1244.0264,839.0631,1246.2263,840.7631Q1248.4264,842.5631,1249.7263,845.2631Q1251.0264,848.0631,1250.9264,851.7631Q1250.8264,855.5631,1248.5264,860.5631Q1246.2263,865.96313,1243.2263,868.7631Q1240.1263,871.5631,1236.7263,872.46313Q1234.034,873.23236,1231.2825,873.23236Q1230.457,873.23236,1229.6263,873.16315Q1226.0264,872.7631,1222.7263,871.8631Q1219.3264,870.8631,1216.5264,869.7631Q1213.6265,868.6631,1211.7263,868.2631Q1210.3264,867.6631,1207.5264,865.5631Q1204.6263,863.46313,1201.2263,860.0631Q1197.8264,856.6631,1194.2263,852.0631Q1190.6263,847.4631,1187.7263,841.8631Q1184.7263,836.16315,1182.8264,829.6631Q1180.9264,823.1631,1180.8264,816.0631Q1180.7263,808.8631,1182.8264,801.1631Q1185.0264,793.3631,1190.2263,785.2631Q1195.9264,777.46313,1201.6265,772.6631Q1207.4264,767.7631,1212.8264,765.1631Q1218.2263,762.46313,1223.2263,761.6631Q1226.5596,761.12976,1229.5818,761.12976 Z M1729.3818,761.12976Q1730.893,761.12976,1732.3264,761.2631Q1742.4265,762.1631,1751.5264,768.46313Q1754.8264,770.2631,1757.2264,772.6631Q1759.2264,774.6631,1760.4265,777.5631Q1761.7264,780.46313,1760.5265,783.9631Q1759.0265,788.1631,1756.9265,790.5631Q1754.8264,792.96313,1752.5265,794.0631Q1750.1265,795.2631,1747.7264,795.46313Q1746.2865,795.6431,1744.9186,795.6431Q1744.0065,795.6431,1743.1265,795.5631Q1740.8264,795.2631,1739.0264,794.96313Q1737.1265,794.5631,1736.0264,794.5631Q1735.2264,794.1631,1733.9265,793.5631Q1732.5264,792.8631,1730.7266,792.6631Q1729.9552,792.53455,1729.1102,792.53455Q1727.9836,792.53455,1726.7264,792.7631Q1724.4265,793.2631,1722.0264,794.8631Q1719.5264,796.5631,1716.9265,799.7631Q1714.2264,803.0631,1711.5264,808.4631Q1709.2264,814.2631,1709.7264,818.5631Q1710.3264,822.8631,1712.6265,825.8631Q1714.9265,828.96313,1718.3264,830.8631Q1721.7264,832.8631,1725.0265,833.96313Q1728.4265,835.1631,1731.0264,835.5631Q1733.6265,836.0631,1734.4265,836.0631Q1735.2264,836.0631,1737.2264,836.46313Q1739.2264,836.96313,1741.5264,837.9631Q1743.8264,839.0631,1746.0265,840.7631Q1748.2264,842.5631,1749.5264,845.2631Q1750.8264,848.0631,1750.7264,851.7631Q1750.6265,855.5631,1748.3264,860.5631Q1746.0265,865.96313,1743.0264,868.7631Q1739.9265,871.5631,1736.5264,872.46313Q1733.834,873.23236,1731.0826,873.23236Q1730.2572,873.23236,1729.4265,873.16315Q1725.8264,872.7631,1722.5264,871.8631Q1719.1265,870.8631,1716.3264,869.7631Q1713.4265,868.6631,1711.5264,868.2631Q1710.1265,867.6631,1707.3264,865.5631Q1704.4265,863.46313,1701.0264,860.0631Q1697.6265,856.6631,1694.0265,852.0631Q1690.4265,847.4631,1687.5265,841.8631Q1684.5264,836.16315,1682.6265,829.6631Q1680.7264,823.1631,1680.6265,816.0631Q1680.5264,808.8631,1682.6265,801.1631Q1684.8264,793.3631,1690.0265,785.2631Q1695.7264,777.46313,1701.4265,772.6631Q1707.2264,767.7631,1712.6265,765.1631Q1718.0264,762.46313,1723.0265,761.6631Q1726.3596,761.12976,1729.3818,761.12976 Z M1393.1077,753.5381Q1393.9764,753.5381,1394.9264,753.6631Q1398.1263,754.2631,1400.3264,756.46313Q1402.6263,758.6631,1404.1263,761.7631Q1405.6263,764.8631,1406.5264,768.46313Q1407.4264,772.0631,1408.0264,775.2631Q1408.3264,777.0631,1409.2263,782.0631Q1410.2263,787.1631,1411.4264,794.0631Q1412.7263,800.96313,1414.2263,808.9631Q1415.8264,816.96313,1417.4264,824.6631Q1419.1263,832.3631,1420.7263,839.0631Q1422.3264,845.7631,1423.8264,850.0631Q1425.9264,856.0631,1426.4264,860.16315Q1426.9264,864.3631,1425.7263,867.0631Q1424.5264,869.7631,1421.5264,871.16315Q1418.5264,872.66315,1413.7263,873.16315Q1408.8264,873.16315,1406.2263,870.7631Q1403.5264,868.2631,1402.0264,864.3631Q1400.5264,860.46313,1399.7263,855.5631Q1398.9264,850.6631,1397.8264,845.7631Q1397.1263,842.1631,1396.1263,841.3631Q1395.6375,841.00757,1395.1289,841.00757Q1394.493,841.00757,1393.8264,841.5631Q1392.5264,842.66315,1391.2263,845.0631Q1389.8264,847.5631,1388.5264,850.46313Q1387.1263,853.46313,1385.8264,856.4631Q1384.5264,859.4631,1383.4264,861.66315Q1382.3264,864.96313,1380.5264,868.1631Q1378.6265,871.46313,1375.9264,873.7631Q1373.2263,876.0631,1369.7263,876.8631Q1368.5264,877.12976,1367.2485,877.12976Q1364.693,877.12976,1361.8264,876.0631Q1358.0264,874.46313,1355.2263,871.46313Q1352.4264,868.3631,1351.2263,864.5631Q1350.0264,860.7631,1350.7263,856.6631Q1351.4264,852.46313,1354.6263,848.66315Q1355.9264,846.7631,1357.8264,842.1631Q1359.7263,837.46313,1361.9264,831.1631Q1364.1263,824.8631,1366.4264,817.46313Q1368.7263,809.9631,1371.0264,802.46313Q1376.2263,784.8631,1382.0264,763.7631Q1382.9264,760.5631,1384.7263,758.1631Q1386.2263,756.1631,1388.6263,754.6631Q1390.5015,753.5381,1393.1077,753.5381 Z M1476.4076,753.5381Q1477.2764,753.5381,1478.2263,753.6631Q1481.4264,754.2631,1483.6265,756.46313Q1485.9264,758.6631,1487.4264,761.7631Q1488.9264,764.8631,1489.8264,768.46313Q1490.7263,772.0631,1491.3264,775.2631Q1491.6265,777.0631,1492.5264,782.0631Q1493.5264,787.1631,1494.7263,794.0631Q1496.0264,800.96313,1497.5264,808.9631Q1499.1263,816.96313,1500.7264,824.6631Q1502.4264,832.3631,1504.0264,839.0631Q1505.6263,845.7631,1507.1263,850.0631Q1509.2264,856.0631,1509.7263,860.16315Q1510.2263,864.3631,1509.0264,867.0631Q1507.8264,869.7631,1504.8264,871.16315Q1501.8264,872.66315,1497.0264,873.16315Q1492.1263,873.16315,1489.5264,870.7631Q1486.8264,868.2631,1485.3264,864.3631Q1483.8264,860.46313,1483.0264,855.5631Q1482.2263,850.6631,1481.1265,845.7631Q1480.4264,842.1631,1479.4264,841.3631Q1478.9375,841.00757,1478.429,841.00757Q1477.7931,841.00757,1477.1265,841.5631Q1475.8264,842.66315,1474.5264,845.0631Q1473.1265,847.5631,1471.8264,850.46313Q1470.4264,853.46313,1469.1263,856.4631Q1467.8264,859.4631,1466.7263,861.66315Q1465.6265,864.96313,1463.8264,868.1631Q1461.9264,871.46313,1459.2263,873.7631Q1456.5264,876.0631,1453.0264,876.8631Q1451.8263,877.12976,1450.5486,877.12976Q1447.993,877.12976,1445.1263,876.0631Q1441.3264,874.46313,1438.5264,871.46313Q1435.7264,868.3631,1434.5264,864.5631Q1433.3264,860.7631,1434.0264,856.6631Q1434.7264,852.46313,1437.9264,848.66315Q1439.2263,846.7631,1441.1265,842.1631Q1443.0264,837.46313,1445.2264,831.1631Q1447.4264,824.8631,1449.7263,817.46313Q1452.0264,809.9631,1454.3264,802.46313Q1459.5264,784.8631,1465.3264,763.7631Q1466.2263,760.5631,1468.0264,758.1631Q1469.5264,756.1631,1471.9264,754.6631Q1473.8014,753.5381,1476.4076,753.5381 Z M1559.7076,753.5381Q1560.5764,753.5381,1561.5264,753.6631Q1564.7263,754.2631,1566.9264,756.46313Q1569.2264,758.6631,1570.7264,761.7631Q1572.2264,764.8631,1573.1265,768.46313Q1574.0264,772.0631,1574.6265,775.2631Q1574.9264,777.0631,1575.8264,782.0631Q1576.8264,787.1631,1578.0264,794.0631Q1579.3264,800.96313,1580.8264,808.9631Q1582.4264,816.96313,1584.0264,824.6631Q1585.7264,832.3631,1587.3264,839.0631Q1588.9264,845.7631,1590.4264,850.0631Q1592.5264,856.0631,1593.0264,860.16315Q1593.5264,864.3631,1592.3264,867.0631Q1591.1265,869.7631,1588.1265,871.16315Q1585.1265,872.66315,1580.3264,873.16315Q1575.4264,873.16315,1572.8264,870.7631Q1570.1265,868.2631,1568.6265,864.3631Q1567.1265,860.46313,1566.3264,855.5631Q1565.5264,850.6631,1564.4264,845.7631Q1563.7264,842.1631,1562.7264,841.3631Q1562.2375,841.00757,1561.7289,841.00757Q1561.0931,841.00757,1560.4264,841.5631Q1559.1265,842.66315,1557.8264,845.0631Q1556.4264,847.5631,1555.1265,850.46313Q1553.7264,853.46313,1552.4264,856.4631Q1551.1265,859.4631,1550.0264,861.66315Q1548.9264,864.96313,1547.1265,868.1631Q1545.2264,871.46313,1542.5264,873.7631Q1539.8264,876.0631,1536.3264,876.8631Q1535.1263,877.12976,1533.8486,877.12976Q1531.2931,877.12976,1528.4264,876.0631Q1524.6265,874.46313,1521.8264,871.46313Q1519.0264,868.3631,1517.8264,864.5631Q1516.6265,860.7631,1517.3264,856.6631Q1518.0264,852.46313,1521.2264,848.66315Q1522.5264,846.7631,1524.4264,842.1631Q1526.3264,837.46313,1528.5264,831.1631Q1530.7264,824.8631,1533.0264,817.46313Q1535.3264,809.9631,1537.6265,802.46313Q1542.8264,784.8631,1548.6265,763.7631Q1549.5264,760.5631,1551.3264,758.1631Q1552.8264,756.1631,1555.2264,754.6631Q1557.1014,753.5381,1559.7076,753.5381 Z M1820.0182,756.9368Q1821.2897,756.9368,1822.4265,757.3631Q1824.8264,758.3631,1826.6265,760.4631Q1828.5264,762.5631,1829.8264,765.3631Q1831.2266,768.1631,1832.1265,770.8631Q1833.1265,773.6631,1833.7264,775.96313Q1834.3264,778.2631,1834.6265,779.2631Q1834.6265,781.3631,1835.1265,786.1631Q1835.6265,790.9631,1836.5265,797.0631Q1837.4265,803.2631,1838.6265,810.0631Q1839.9265,816.8631,1841.4265,822.96313Q1842.9265,829.1631,1844.3264,835.0631Q1845.8264,841.0631,1845.8264,846.1631Q1845.8264,851.2631,1843.7266,855.1631Q1841.6265,859.16315,1835.9265,861.16315Q1833.614,861.7881,1831.6531,861.7881Q1830.4764,861.7881,1829.4265,861.5631Q1826.5265,860.8631,1824.3264,859.16315Q1822.1265,857.4631,1820.6265,854.96313Q1819.0265,852.46313,1817.8264,849.8631Q1816.6265,847.2631,1815.8264,844.8631Q1815.0265,842.3631,1814.3264,840.6631Q1813.7264,838.1631,1812.5265,835.7631Q1811.3264,833.2631,1809.6265,831.4631Q1807.9265,829.6631,1806.0264,828.7631Q1804.7406,828.1845,1803.4137,828.1845Q1802.6764,828.1845,1801.9265,828.3631Q1799.8264,828.3631,1798.1265,829.8631Q1796.4265,831.3631,1795.4265,834.1631Q1794.4265,836.96313,1794.3264,841.0631Q1794.1265,845.1631,1795.1265,850.2631Q1796.1265,855.8631,1796.1265,861.0631Q1796.0265,866.2631,1794.5265,870.3631Q1792.9265,874.46313,1789.8264,877.0631Q1786.6265,879.7631,1781.5265,880.2631Q1777.7264,880.2631,1775.1265,878.8631Q1772.4265,877.3631,1770.6265,875.0631Q1768.7266,872.66315,1767.7264,869.7631Q1766.6265,866.7631,1766.0264,863.7631Q1765.4265,860.66315,1765.3264,857.8631Q1765.1265,855.0631,1765.1265,852.96313Q1765.3264,851.46313,1765.4265,847.7631Q1765.6265,843.9631,1765.6265,838.8631Q1765.7264,833.7631,1765.7264,827.7631Q1765.7264,821.7631,1765.6265,815.7631Q1765.4265,801.6631,1765.1265,784.7631Q1765.3264,781.7631,1767.0265,779.1631Q1768.4265,776.96313,1771.4265,774.96313Q1774.5264,772.9631,1780.2264,772.4631Q1780.955,772.3988,1781.6238,772.3988Q1784.0764,772.3988,1785.7264,773.2631Q1787.8264,774.3631,1789.0264,776.3631Q1790.2264,778.3631,1790.7264,780.8631Q1791.2266,783.3631,1791.2266,785.8631Q1791.3264,788.46313,1791.2266,790.6631Q1791.0264,792.96313,1791.0264,794.3631Q1790.5265,796.4631,1790.2264,798.7631Q1789.8264,801.1631,1790.4265,803.1631Q1791.1265,805.2631,1793.1265,806.5631Q1795.1265,807.96313,1799.2264,807.96313Q1803.3264,807.96313,1804.8264,805.1631Q1806.4265,802.2631,1806.5265,798.2631Q1806.7264,794.2631,1806.0264,790.1631Q1805.2264,786.0631,1804.7264,783.4631Q1804.7264,781.7631,1804.7264,779.3631Q1804.6265,776.96313,1804.8264,774.3631Q1805.1265,771.6631,1805.7266,768.96313Q1806.4265,766.2631,1807.7266,763.96313Q1809.1265,761.6631,1811.3264,759.9631Q1813.6265,758.1631,1817.0265,757.46313Q1818.6055,756.9368,1820.0182,756.9368 Z M1302.9264,764.1131Q1305.1764,764.1131,1307.6265,764.3631Q1313.0264,765.1631,1317.6263,767.3631Q1322.2263,769.5631,1325.7263,772.9631Q1329.2263,776.46313,1331.5264,781.0631Q1333.9264,785.7631,1334.8264,791.5631Q1335.7263,797.3631,1334.2263,801.96313Q1332.6265,806.5631,1330.2263,809.8631Q1327.7263,813.2631,1325.2263,815.2631Q1322.7263,817.2631,1321.9264,817.6631Q1321.0264,818.0631,1319.9264,818.7631Q1318.8264,819.5631,1317.7263,820.8631Q1316.6263,822.2631,1315.5264,824.2631Q1314.4264,826.3631,1313.5264,829.3631Q1313.1263,832.0631,1314.9264,834.8631Q1316.8264,837.7631,1319.5264,840.2631Q1322.2263,842.8631,1324.9264,844.96313Q1327.6265,847.16315,1328.9264,848.46313Q1330.1263,849.6631,1331.5264,851.5631Q1333.0264,853.46313,1334.1263,855.7631Q1335.3264,858.0631,1335.9264,860.5631Q1336.5264,863.0631,1336.0264,865.3631Q1335.4264,867.7631,1333.5264,869.8631Q1331.6265,871.9631,1327.7263,873.46313Q1323.9185,874.61914,1320.989,874.61914Q1319.6104,874.61914,1318.4264,874.3631Q1314.6263,873.46313,1312.2263,871.0631Q1309.7263,868.5631,1308.4264,864.96313Q1307.0264,861.3631,1306.3264,857.5631Q1305.5264,853.7631,1305.1263,850.3631Q1304.6265,846.9631,1304.0264,844.8631Q1303.1263,842.1631,1302.3264,840.5631Q1301.4264,838.96313,1300.7263,838.1631Q1299.9264,837.2631,1299.3264,836.96313Q1298.6263,836.66315,1298.1265,836.66315Q1297.2263,836.66315,1296.9264,837.46313Q1296.6263,838.2631,1296.6263,839.3631Q1296.6263,840.46313,1296.7263,841.6631Q1296.9264,842.8631,1296.9264,843.6631Q1296.9264,846.3631,1297.8264,852.0631Q1298.7263,857.7631,1300.6265,864.96313Q1301.4264,868.1631,1301.4264,871.66315Q1301.5264,875.2631,1300.2263,878.16315Q1298.8264,881.0631,1295.8264,882.7631Q1293.4785,884.1718,1289.6609,884.1718Q1288.6003,884.1718,1287.4264,884.0631Q1282.1265,883.16315,1279.7263,880.9631Q1277.2263,878.6631,1276.7263,875.8631Q1276.1263,873.0631,1276.9264,870.16315Q1277.8264,867.2631,1279.2263,864.96313Q1280.4264,863.5631,1280.6265,859.3631Q1280.9264,855.1631,1280.6265,849.2631Q1280.2263,843.3631,1279.5264,836.3631Q1278.7263,829.2631,1277.8264,821.96313Q1276.8264,814.6631,1275.9264,807.7631Q1275.0264,800.7631,1274.4264,795.1631Q1273.7263,790.6631,1273.8264,787.1631Q1273.9264,783.6631,1274.5264,780.8631Q1275.2263,778.0631,1276.2263,776.0631Q1277.2263,774.0631,1278.4264,772.5631Q1281.1263,769.1631,1285.1265,767.7631Q1288.0264,766.4631,1291.5264,765.5631Q1294.5264,764.7631,1298.6263,764.3631Q1300.6764,764.1131,1302.9264,764.1131 Z M1328.7705,883.8389C1328.4388,884.08344,1328.1106,884.3325,1327.786,884.586Q1327.9669,884.43744,1328.1481,884.29144L1328.1365,884.29144Q1328.4441,884.06445,1328.7572,883.8389 Z M1554.8052,899.13153C1550.3849,901.2306,1546.3424,904.0465,1542.8408,907.4647L1542.8334,907.4647Q1545.7499,904.5608,1548.6902,902.28546L1548.6765,902.28546Q1551.5236,900.6359,1554.7897,899.13153 Z M1743.3412,643.78455C1743.2163,643.78455,1743.0913,643.7851,1742.9663,643.78613C1736.0648,643.84467,1729.0745,645.5187,1722.5575,648.9803C1704.0872,658.7912,1695.3859,679.7914,1700.3691,699.1914Q1689.0846,688.2101,1681.4523,682.1417C1675.3368,677.2794,1668.0465,674.11743,1660.3177,672.9751Q1656.7864,672.4532,1653.3524,672.4532Q1653.1615,672.4532,1652.9708,672.4548Q1642.0359,672.5475,1632.0914,677.9498L1632.0913,677.9498Q1603.5383,693.4614,1608.3964,723.2106Q1600.2523,713.43787,1591.6024,703.0305L1591.6024,703.03046C1582.8734,692.52783,1570.2332,687.01276,1557.4404,687.01276C1557.3147,687.01276,1557.189,687.0133,1557.0631,687.01434C1548.5417,687.08655,1539.9691,689.60693,1532.4556,694.7314C1526.5227,698.77765,1521.8602,704.0311,1518.5966,709.9554Q1487.3939,674.33606,1472.2109,659.86536C1463.6752,651.73004,1452.6444,647.609,1441.5786,647.609C1441.4526,647.609,1441.3267,647.6095,1441.2007,647.6106C1431.5482,647.6923,1421.8903,650.91016,1413.859,657.33484C1401.9274,666.87915,1396.1128,681.47955,1397.3629,695.86475L1397.3629,695.86475Q1392.0939,690.28516,1387.3164,685.4171C1378.6876,676.6246,1367.1892,672.11914,1355.6211,672.11914C1355.4954,672.11914,1355.3695,672.1197,1355.2438,672.1207C1346.1146,672.1981,1336.9607,675.0825,1329.1583,680.88135C1319.7336,687.8856,1313.812,698.0041,1311.9114,708.8606L1311.9017,708.86066L1307.2782,703.7633C1298.5852,694.1798,1286.542,689.19617,1274.3806,689.19617C1274.2549,689.19617,1274.129,689.1967,1274.0033,689.19775C1265.4784,689.26996,1256.9121,691.7921,1249.4166,696.896C1235.0233,706.69727,1228.0417,723.6618,1230.4888,740.11584L1214.6676,721.6396C1214.1594,721.0461,1213.635,720.46564,1213.0963,719.8997Q1195.3252,701.2383,1186.3177,694.1049L1186.3176,694.10474Q1169.7927,681.0179,1154.2026,681.0179Q1154.0454,681.0179,1153.8882,681.0192Q1144.1947,681.10144,1134.8628,686.2492L1134.853,686.24927Q1134.2993,686.50287,1133.7477,686.772L1133.7451,686.77313Q1115.5654,695.64386,1109.9604,710.5721C1101.551,702.90454,1090.8289,699.0067,1080.0641,699.0067C1079.9381,699.0067,1079.8123,699.00726,1079.6863,699.0083C1069.8876,699.09143,1060.0753,702.40497,1051.9619,709.0458C1034.1383,723.6343,1030.4342,749.43207,1043.4338,768.4459Q1083.1874,826.5922,1118.7786,929.3283C1125.1368,947.6819,1142.3301,959.19806,1160.719,959.19806C1160.8434,959.19806,1160.9678,959.1975,1161.0923,959.1965C1165.7916,959.1566,1170.5648,958.364,1175.2509,956.7404C1189.1707,951.91833,1199.1575,940.8642,1203.1704,927.78265L1203.1808,927.7826Q1217.0737,943.2413,1227.4562,956.1488C1228.3783,957.29535,1229.3573,958.3954,1230.3883,959.44434Q1247.4181,976.76904,1264.232,976.76904Q1264.3704,976.76904,1264.5087,976.7679Q1280.214,976.6348,1295.7305,961.383L1295.7312,961.38245Q1302.315,954.91077,1305.7053,947.1443L1305.7168,947.14417Q1314.9637,954.1033,1322.2327,957.9212L1322.2328,957.9213Q1338.2891,966.35455,1352.3202,966.35455Q1352.5176,966.35455,1352.7146,966.3529Q1370.1725,966.2049,1384.4825,952.9483L1384.4705,952.9483Q1386.2267,951.4779,1387.7887,949.91003L1387.8009,949.9099Q1394.713,957.09924,1398.6827,960.59845Q1401.3447,962.9451,1404.006,964.8417L1403.9937,964.84174Q1417.6072,976.0386,1426.9573,981.4225L1426.9574,981.4225Q1443.2806,990.82166,1457.2513,990.82166Q1457.4271,990.82166,1457.6025,990.8202Q1476.5421,990.65967,1491.14,973.1524L1491.1416,973.15045Q1499.1786,963.5102,1501.2852,950.9815C1501.6447,948.8433,1501.8468,946.6817,1501.8905,944.51514L1501.9038,944.515Q1514.171,955.536,1523.3988,962.42883L1523.3865,962.4289Q1535.4546,971.7693,1544.279,976.5549Q1559.8033,984.9741,1573.3264,984.9741Q1573.5103,984.9741,1573.6937,984.97253Q1587.1925,984.8581,1598.6895,976.32074L1598.6752,976.32074Q1612.0519,968.49927,1617.1366,956.46075L1617.1511,956.46063Q1620.0044,958.68146,1622.5594,960.39Q1627.5999,963.76086,1632.5538,966.0448L1632.5393,966.0449Q1648.7075,974.7114,1662.0223,974.7114Q1662.1952,974.7114,1662.3677,974.70996Q1682.2628,974.5413,1695.7516,954.9154L1695.7668,954.9153Q1712.2065,969.7726,1723.4219,976.3688Q1726.8829,978.40424,1730.2455,979.95483L1730.2299,979.95496Q1732.8469,981.2914,1735.341,982.3898L1735.3419,982.3902Q1751.2024,989.3747,1764.1526,989.3747Q1764.3552,989.3747,1764.5573,989.373Q1788.5498,989.1696,1802.4816,964.82294L1802.4653,964.82294Q1808.3146,957.4544,1809.784,946.8564L1809.8005,946.8562Q1820.906,955.6384,1829.5183,960.2261Q1844.534,968.2247,1858.7463,968.2247Q1858.9601,968.2247,1859.1736,968.22284Q1866.7322,968.1587,1874.0634,965.82837C1874.3909,965.7243,1874.7191,965.61566,1875.0441,965.50397Q1921.8503,949.41644,1904.6425,899.35046L1904.6422,899.35004Q1903.6437,896.4451,1902.3369,893.44073Q1900.8662,890.0597,1898.9696,886.4721L1898.929,886.3953L1782.5806,667.35846C1774.605,652.3437,1759.235,643.78455,1743.3412,643.78455 Z" fill="#ffc500" class="color000 svgShape"/>
    </svg>
  </g>
</svg>