<svg xmlns="http://www.w3.org/2000/svg"
  xmlns:xlink="http://www.w3.org/1999/xlink" width="235" height="40" viewBox="0 0 235 40">
  <defs>
    <path id="a" d="M0 .579h35.445V35.25H0z"/>
  </defs>
  <g fill="none" fill-rule="evenodd">
    <g transform="translate(0 -.143)">
      <mask id="b" fill="#fff">
        <use xlink:href="#a"/>
      </mask>
      <path fill="#FFF" d="M27.892 21.804a.321.321 0 0 0-.068-.173c1.842-.053 4.97-.13 5.599-.07.655.06-3.322.181-5.53.243zm-1.145 1.654c.079.024.158.053.238.082.393.137.801.277 1.202.403 1.305.41 2.614.805 3.907 1.225-2.567-.705-5.128-1.419-7.681-2.137-.023-.018-.026-.05-.039-.074-.034-.073-.077-.152-.11-.233.333.098.664.195.995.295.495.15.99.29 1.488.439zm6.33 1.913c.073.022.12.04.17.056.367.114.74.225 1.11.34a.98.98 0 0 1-.193-.028c-.041-.01-.084-.032-.124-.046-.295-.107-.598-.2-.908-.297.076.03.159.057.238.085-.08-.012-.156-.038-.235-.062-.536-.162-1.08-.33-1.613-.502-.614-.197-1.23-.379-1.84-.579 1.136.34 2.264.688 3.395 1.033zm1.537.351c.027-.029.057-.029.083-.029a.57.57 0 0 1 .004.224c-.01.064-.029.147-.079.163-.036.012-.109-.012-.168-.027-.799-.201-1.595-.428-2.377-.642-.635-.174-1.26-.352-1.894-.525-1.68-.459-3.357-.937-5.033-1.41-.16-.045-.341-.09-.51-.144-.006-.002-.013-.006-.02-.007-.044-.02-.1-.007-.105-.067.002 0 .004.002.004.004.208.053.415.114.621.169.621.16 1.246.333 1.873.5.835.224 1.675.434 2.512.65.837.215 1.674.435 2.506.658.205.055.409.119.614.175.313.086.624.163.944.244.105.026.212.05.313.081.2.064.393.135.59.197.024-.02.04-.05.036-.079-.005-.044-.056-.06-.107-.073.063.012.13-.014.193-.062zm-9.622-1.011c-.123-.033-.257-.089-.383-.13-.089-.178-.177-.353-.263-.532.13.038.254.083.384.12.088.181.172.365.262.542zm1.02 5.513c-.366-.47-.743-.945-1.114-1.424-.026-.033-.06-.065-.077-.096-.021-.038-.03-.088-.048-.135a28.205 28.205 0 0 1-.465-1.295l1.704 2.95zm-2.14-7.115c-.006-.008-.007-.021-.014-.027 0-.006.003-.003.003 0 .104.027.218.055.33.085.03.009.077.015.081.056-.137-.035-.265-.076-.4-.114zm.138 4.556c-.179-.224-.344-.462-.513-.696-.496-.686-.997-1.365-1.5-2.052-.042-.058-.073-.15-.105-.226l-.184-.455c-.013-.03-.03-.063-.035-.09-.01-.061 0-.13-.004-.195-.004-.067-.006-.132-.008-.192l.477.157 1.413 2.046c.158.57.297 1.14.463 1.703 0 .005 0 .005.004.005-.002.006-.007 0-.008-.005zm-.673 1.96c-.003.014-.019-.027-.024-.038a21.278 21.278 0 0 1-.375-.735c-.13-.264-.269-.525-.401-.786-.263-.526-.539-1.05-.802-1.566-.006-.272-.015-.541-.02-.816a232.026 232.026 0 0 1 1.622 3.94zm-1.69-6.421l.318.461c-.103-.035-.206-.069-.308-.107-.005-.116-.008-.236-.01-.354zm-.276-7.74c.004-.033.089-.103.13-.146.312-.32.618-.661.92-.981l.391-.429c.212-.23.44-.467.654-.698.303-.333.614-.652.919-.985.043-.046.091-.089.134-.137.345-.38.727-.722 1.088-1.083.181-.183.37-.355.551-.537.543-.542 1.105-1.068 1.664-1.597.093-.088.192-.173.286-.258.282-.257.565-.52.857-.772.196-.168.394-.334.591-.496.202-.167.404-.331.608-.486.004-.005.01-.002.004 0-1.063 1.127-2.164 2.22-3.25 3.327-.27.277-.542.552-.819.825-.045.047-.095.088-.14.134-.022.024-.04.052-.062.075l-3.904 3.903c-.137.136-.276.269-.414.407-.034.034-.066.068-.102.102-.01.01-.02.025-.035.023-.021-.063-.065-.103-.071-.18v-.012zm-.027-1.672c0-.042-.009-.092 0-.125.006-.025.054-.055.086-.083.088-.078.178-.162.263-.235.358-.313.71-.623 1.06-.935.117-.105.241-.206.356-.31l.178-.156c.29-.256.593-.517.884-.775-.461.497-.937.995-1.41 1.496-.354.374-.707.748-1.057 1.126a7.53 7.53 0 0 1-.353.368c-.003-.11-.007-.25-.007-.371zm1.32 1.457c-.304.302-.594.604-.905.914-.005.006-.019.017-.031.028-.014.012-.014.026-.028.017-.009-.007-.018-.03-.012-.045 0 .002.03-.023.032-.026.636-.612 1.267-1.246 1.899-1.86-.303.309-.636.65-.956.972zm-.418 3.734c-.072-.026-.132-.063-.2-.09.03-.037.073-.062.104-.098.005 0 .007 0 .008.003l.088.185zm.417-2.78l.31-.27c.424-.367.838-.724 1.252-1.072.106-.09.214-.176.318-.267.305-.27.607-.553.911-.83.816-.741 1.62-1.464 2.447-2.203.412-.367.82-.74 1.229-1.097.614-.535 1.232-1.092 1.88-1.608a6.5 6.5 0 0 1 .685-.5c-.351.603-.854 1.07-1.387 1.505-.106.088-.206.182-.309.27-.388.337-.773.67-1.166 1.003-.015.01-.03.019-.043.03-.214.187-.442.376-.663.564-.415.356-.843.702-1.251 1.062-.412.36-.823.72-1.238 1.076-.207.178-.417.356-.621.536-.411.36-.825.718-1.239 1.077-.616.535-1.262 1.048-1.886 1.582-.024-.013-.12-.026-.142-.048-.013-.014-.01-.003 0-.015.014-.016.047-.041.06-.05l.853-.745zm8.358-5.214c.015-.014.095-.072.095-.072l-.065-.08c.24-.152.477-.303.745-.424.27-.12.558-.207.849-.313.427-.155.862-.296 1.327-.419.108-.028.212-.062.323-.081.051-.008.102-.015.154-.016.012.002-.002.014-.002.014-.1.077-.23.138-.349.2-.255.137-.516.264-.786.388-.136.062-.28.113-.42.169-.14.056-.28.11-.42.168a23.39 23.39 0 0 0-1.212.568c-.301.148-.591.307-.878.47.1-.101.232-.21.365-.327.086-.073.18-.163.274-.245zm3.17-2.04c.053-.012.107-.024.161-.031a.995.995 0 0 1 .333.003l.07.017c.027.005.054.005.076.012a.382.382 0 0 1 .124.085.97.97 0 0 1 .192.232c.028.044.06.098.066.156.01.068 0 .15-.01.215-.072.369-.386.533-.667.697l-.07.043c-.022.012-.063.028-.074.036-.04.027-.104.058-.118.067-.033-.01-.071-.029-.113-.017.043-.02.14-.064.183-.086.249-.13.467-.29.673-.462a.528.528 0 0 0 .146-.379c0-.172-.102-.306-.196-.403-.034-.036-.067-.074-.102-.095a.574.574 0 0 0-.172-.066c-.164-.038-.362-.003-.52.027-.317.063-.62.148-.913.24-.403.125-.785.26-1.147.39.611-.257 1.35-.51 2.078-.68zm-1.255 2.08c-.626.343-1.272.66-1.906.993-.09.047-.18.098-.267.146-.54.283-1.084.57-1.617.868.03-.03.066-.05.101-.074.535-.368 1.12-.698 1.712-1.014.159-.086.322-.16.485-.243.162-.081.329-.154.494-.23.328-.156.665-.304.998-.454.016 0 0 .002 0 .008zm-.667.911c-.07.064-.155.117-.238.18-.56.423-1.117.865-1.667 1.304a116.994 116.994 0 0 0-3.697 3.101c-.587.51-1.174 1.018-1.764 1.526-.017.015-.035.034-.059.038-.45-.152-.893-.312-1.344-.465-.012-.012.012-.022.018-.027.061-.062.14-.121.21-.183.237-.211.48-.423.72-.635.16-.142.323-.28.482-.423.08-.072.155-.148.238-.216.411-.336.832-.677 1.25-1.009.082-.067.184-.116.282-.173 1.796-1.055 3.688-2.032 5.569-3.018zm-2.984 8.455l.105.035c.097.039.205.076.309.115.022.007.048.009.063.03-.373-.13-1.6-.545-1.97-.677a826.15 826.15 0 0 0-3.344-1.17c.012-.017.028-.03.042-.043 1.311.472 3.485 1.234 4.795 1.71zM25.897 19.1c.94.328 2.745.955 3.7 1.271.031.01.062.026.095.035.026.01.067.012.082.044-.025.024-.091.02-.13.007-.03-.01-.052-.03-.066-.042-.951-.333-2.747-.963-3.681-1.31-.006-.003-.003-.005 0-.005zm-1.684-.453c-.45-.156-.906-.305-1.354-.462-.018-.005.014-.02.02-.028.016-.012.029-.028.047-.04.445.16.885.326 1.334.482 0 .016-.031.034-.047.048zM22.57 20.11c-.028.034-.067.067-.101.097-.01.01-.023.026-.036.025-.028-.078-.066-.147-.094-.224.08.032.15.072.23.102zm.38.352c-.098-.031-.193-.064-.294-.094.046-.052.1-.099.153-.144.014.002.021.01.035.011.034.078.072.15.106.227zm.595-1.224c-.087.078-.173.154-.262.231-.238-.11-.47-.223-.71-.33-.074-.17-.155-.334-.234-.5.04-.048.09-.084.136-.126.447.16.88.332 1.328.49-.08.084-.172.156-.258.235zm.65 1.616c0 .005.016.007 0 .007-.315-.1-.63-.203-.948-.301-.033-.053-.053-.118-.086-.172.045.011.086.035.13.054.295.138.603.275.904.412zm-.05 2.103l-.408-.114c-.053-.11-.112-.214-.165-.325.14.043.28.085.423.124.05.106.102.207.15.315zm-.502-1.586l.984.256-.039.034-.945-.29zm2.638 10.444c.072.095.143.195.215.295.192.258.39.512.58.778.095.134.191.267.25.426-.003.016-.03-.02-.039-.032a6.635 6.635 0 0 1-.571-.703c-.188-.27-.347-.566-.51-.854.03.027.053.058.075.09zm-5.53-5.572c-.049-.1-.159-.393-.29-.764l-.075-.405c.224.417.448.897.68 1.33.034.063.07.131.096.193v.007c.01.06.006.136.007.204l.005.26c-.182-.354-.352-.684-.422-.825zm-.556-2.594c.018.01.03.035.047.055.013.019.034.038.046.06.01.017.014.047.024.07.023.063.055.135.078.203-.07-.126-.127-.264-.195-.388zm-.064-9.709c-.017-.036-.045-.074-.054-.112-.009-.036-.006-.097-.009-.145-.006-.118-.012-.248-.02-.373.04.075.1.205.147.298.018.039.045.076.05.116.007.057.005.138.007.2.002.023.008.05.005.063-.007.036-.047.048-.075.07a1.624 1.624 0 0 0-.051-.117zm-.094-.868c.067.127.126.263.192.39.004.044.004.092.008.133-.066-.139-.13-.286-.196-.426.003-.037-.005-.062-.004-.097zm.446 9.685c.024.071.053.136.08.207a3.304 3.304 0 0 1-.177-.24c.031.013.061.026.097.033zm.631 2.117c.003.142.007.283.013.423-.224-.427-.438-.862-.663-1.288.03.031.056.067.083.102.184.25.38.511.567.763zm-2.087-12.432c-.013-.03-.032-.064-.034-.087-.006-.032.007-.07.011-.105.006-.044.006-.08.012-.118.19.394.372.796.56 1.191.007.139.016.277.022.417-.188-.423-.379-.861-.57-1.298zm.161 9.95c-.075.076-.157.164-.239.235-.08-.024-.154-.054-.235-.077.094-.088.196-.168.293-.251.072.018.136.04.208.058.003.019-.017.027-.027.036zm-3.081 2.319c-.005-.007.008-.012.012-.016.07-.061.145-.123.219-.186.215-.176.44-.358.666-.53-.047.048-.1.093-.15.136.55-.457 1.11-.938 1.664-1.405.078.027.156.053.235.078-.878.643-1.768 1.278-2.646 1.923zm-.028-6.954c-.008 0-.046-.014-.074-.023a10.695 10.695 0 0 1-.567-.197l.6-.275c.06.125.118.25.179.374-.015.027-.036.043-.063.067-.02.018-.047.052-.075.054zm-.02 1.42a23.993 23.993 0 0 1-.668-.202c-.017-.005.016-.024.024-.032.226.067.446.14.671.207-.004.014-.02.017-.027.028zm-.284 6.329c-.83.65-1.664 1.318-2.495 1.972.06-.086.115-.17.196-.24.272-.234.552-.476.823-.717.1-.087.195-.175.305-.25.448-.294.89-.602 1.33-.9-.05.05-.106.091-.16.135zm-1.64 1.08c-.038.043-.088.078-.134.117l-.415.351c.023-.046.06-.088.093-.136.012-.016.021-.035.032-.046.027-.027.071-.05.105-.076.104-.068.22-.138.318-.21zm1.401-5.333a.596.596 0 0 0 .042.012c-.044.057-.094.11-.145.16-.016-.003-.025-.01-.042-.01-.002-.02.019-.028.031-.04.036-.037.075-.084.114-.122zm.254.075c-.001.018-.02.031-.032.043a7.265 7.265 0 0 1-.125.121 1.027 1.027 0 0 1-.138-.047c-.015-.004.009-.014.01-.015.038-.043.092-.098.132-.14.059.004.097.03.153.038zm-.035-1.135c-.055.063-.135.136-.192.198-.024-.002-.042-.013-.063-.02.084-.074.175-.14.258-.213l.008.002c.013.01-.006.026-.011.033zm-3.53 4.51c-.024.02-.07.072-.08.073-.006.002.038-.04.043-.045.108-.118.23-.239.333-.353.063-.07.133-.129.195-.196.249-.27.514-.529.768-.799.311-.333.642-.665.959-.996.064-.064.13-.13.192-.198s.129-.13.192-.2c.094-.1.19-.2.29-.297.031-.032.056-.072.097-.094.013.006.03.012.047.015-.177.21-.37.408-.551.615.202-.196.393-.406.599-.598a.993.993 0 0 0 .14.046c-.197.216-.412.416-.611.634l-.043.047c-.013.016-.02.036-.035.05-.023.027-.055.052-.082.075-.82.737-1.64 1.471-2.454 2.22zm-.655 5.185c.057-.09.122-.177.188-.27.02-.028.04-.064.062-.089.023-.024.054-.041.082-.062.181-.144.37-.3.548-.447-.278.288-.589.578-.88.868zm-.85-.23a.216.216 0 0 1 .06-.058c.145-.129.291-.264.45-.387.156-.124.312-.248.465-.373-.004.036-.045.055-.078.081-.293.24-.606.496-.896.737zm.028.055c-.306.263-.624.523-.94.783-.42.346-.842.694-1.268 1.03.046-.048.1-.088.152-.128.16-.129.32-.254.474-.389l.615-.532c.204-.179.402-.366.618-.531.215-.168.428-.339.65-.499-.09.101-.2.18-.301.266zm-2.663 2.012c-.374.312-.756.64-1.13.959l-.034.03a.268.268 0 0 0-.009-.065.38.38 0 0 1 .038-.042c.027-.026.06-.037.09-.056.026-.015.049-.042.076-.063.372-.301.77-.607 1.139-.912-.051.054-.112.1-.17.149zm-.563.317c.366-.313.743-.627 1.112-.944 1.26-1.08 2.513-2.185 3.769-3.272-.095.15-.205.302-.313.454-.015.022-.027.049-.043.067-.022.025-.06.048-.089.074-.44.363-.892.749-1.327 1.112.069-.044.134-.09.198-.137-.273.241-.555.479-.845.708-.866.691-1.744 1.38-2.614 2.072.043-.053.101-.09.152-.134zm7.047-10.909c.048-.046.1-.087.151-.127l.212.063a1.158 1.158 0 0 1-.129.141c-.08-.024-.154-.055-.234-.077zm-.259-1.172c0-.018.022-.03.036-.042.039-.038.088-.08.129-.119 0-.003.007-.002.007-.006.204.053.403.113.603.171-.075.063-.15.123-.227.184-.184-.061-.364-.127-.548-.188zm-.717-1.539c-1.35-.427-2.716-.847-4.052-1.283 1.8.551 3.617 1.086 5.399 1.656-.022.03-.042.031-.074.023-.081-.02-.17-.053-.255-.078-.337-.102-.683-.211-1.018-.318zm.321 2.486a16.47 16.47 0 0 0-.458-.155c.005-.03.055-.048.072-.08.172.044.339.095.508.141-.04.033-.076.07-.122.094zm-.223.189a1908.39 1908.39 0 0 0-3.59 2.9c-.008.005-.008.005-.004-.003.393-.383.782-.772 1.191-1.143.067-.062.127-.13.195-.192a3.07 3.07 0 0 0 .196-.191c.25-.27.522-.517.779-.776.195-.194.397-.378.595-.571.066-.065.133-.126.204-.186.145.05.292.098.434.15.016 0 0 .007 0 .012zm-1.733-.862c.352.097.698.197 1.053.29a.178.178 0 0 1-.06.053c-.323-.114-.676-.226-.993-.343zm-1.03-1.468c1.017.295 2.038.586 3.053.88.014.005-.006.02-.008.022a3.436 3.436 0 0 1-.148.125c-.965-.342-1.935-.676-2.893-1.023-.007 0-.008-.004-.005-.004zm-.416-.146c.067.011.132.036.196.056l.595.177c-.007.007-.01.001-.019 0-.13-.03-.264-.071-.396-.106-.131-.036-.256-.084-.376-.127zm-1.13-2.998c.157.089.332.186.493.275-.33-.137-.657-.28-.987-.423a264.22 264.22 0 0 0-2.983-1.265c.065 0 .128.017.192.029H6.1l.686.148c.114.058.243.12.371.157.096.027.204.034.313.034.097 0 .199.005.282.031l.765.52.084.037.001.001v-.001l1.66.697 1.826.839c-.921-.374-1.855-.74-2.77-1.121.018.016.04.03.062.042zm-3.046-3.527c.484.172.97.34 1.44.506a2.07 2.07 0 0 1-.199-.047 23.771 23.771 0 0 1-.591-.173c.015-.01-.002.001.019-.002-.078-.019-.105-.032-.184-.044-.078-.013-.16-.018-.234-.04-.064-.017-.124-.056-.189-.086-.03-.014-.066-.025-.098-.038-.09-.042-.178-.087-.277-.13-.07-.031-.15-.052-.192-.098.173.012.36.101.505.152zm2.058 1.523c.18.084.36.168.537.247.535.237 1.062.498 1.602.737-.883-.184-1.79-.348-2.702-.521-.06-.012-.125-.018-.176-.036-.025-.008-.048-.029-.074-.047l1.88.148s-.997-.475-2.148-.945c.086.027.173.052.256.077.103.03.207.047.298.089.175.084.347.168.527.251zm1.967.275c.03.002.07.025.105.038.036.015.077.025.106.04.02.01.045.036.066.055.062.052.136.115.197.164-.212-.083-.43-.192-.647-.283.06 0 .118-.02.173-.014zm4.991 4.1c-.096-.027-.185-.07-.28-.11l-.221-.083.045-.021c.16.063.314.132.456.213zm-2.424-2.288c.127.05.256.109.384.169.737.345 1.496.686 2.242 1.028l-.641.415a6.695 6.695 0 0 1-.222-.105c-.254-.127-.532-.242-.8-.356-.18-.076-.36-.158-.536-.235a18.68 18.68 0 0 1-1.558-.755.744.744 0 0 1-.364-.051c-.314-.108-.6-.27-.877-.416-.023-.01-.048-.026-.07-.038-.254-.138-.517-.271-.78-.404-.098-.048-.194-.097-.302-.136 0-.004.002-.004.004-.004 1.067.219 2.109.463 3.117.743.137.039.27.094.403.145zm-.606-8.234c0-.014.002 0 .007 0L13.04 8.8c.04.074.086.145.119.224.758 1.827 1.523 3.683 2.348 5.452.067.146.142.283.203.436.002.001.019.015.004.019a.34.34 0 0 0-.062-.023 252.366 252.366 0 0 1-3.331-7.436zm-.348-.648c.02.017.026.044.038.066.09.166.19.333.266.517.089.21.175.425.255.641-.196-.398-.373-.816-.56-1.224zm.68-5.292l.014-.004c.363.868.734 1.736 1.106 2.609.01.028.04.088.054.134 0-.002.012.022.012.02 0 .017-.005.01-.015.015-.019.01-.021 0-.031-.02-.022-.04-.04-.108-.052-.136-.351-.88-.728-1.748-1.088-2.618zm.16-.059c.148.356.29.727.44 1.083.021.052.036.108.07.154-.141-.43-.298-.844-.454-1.258l.022-.009c.407.908.803 1.827 1.195 2.75-.064.026-.126.051-.184.082-.152-.348-.294-.69-.442-1.037-.05-.116-.093-.236-.142-.352-.095-.234-.204-.453-.305-.681-.098-.217-.19-.45-.21-.728l.01-.004zm2.409 10.068c.12.248.225.504.337.76.11.252.22.507.328.763a70.315 70.315 0 0 1-1.194-2.083l-.196-.352a3.251 3.251 0 0 1-.172-.372 181.188 181.188 0 0 1-1.273-3.098c0-.015.02.023.024.032.235.468.47.945.705 1.413.244.487.475.983.72 1.47.244.483.479.975.721 1.467zm.552-.431c.224.474.395.973.601 1.469-.11-.231-.237-.456-.343-.694-.108-.24-.202-.486-.307-.732-.204-.486-.405-.979-.605-1.464.223.47.428.948.654 1.42zm.43 9.468c-.009.01-.018.028-.031.026-.014-.008.01-.018.019-.029.064-.069.141-.152.212-.218-.052.056-.133.15-.2.221zm.136.006c.062-.062.126-.134.189-.196.048.015.1.03.148.047.012.004-.011.022-.02.031a4.617 4.617 0 0 1-.234.226 1.083 1.083 0 0 0-.137-.046c.004-.024.034-.041.054-.062zm-.912-13.17c.031.058.075.17.098.228.552 1.328 1.097 2.655 1.655 3.982.075.17.15.357.225.535.01.026.024.052.03.075.013.053.007.098.017.16-.676-1.662-1.342-3.29-2.008-4.932-.005-.014-.01-.02-.017-.04-.002-.008-.013-.032 0-.007zm1.47-4.082c.016.042.02.099.027.152-.003-.112-.024-.223-.036-.337-.053-.455-.104-.897-.15-1.361-.014-.153-.01-.328.078-.46.07-.108.215-.214.345-.21.238.011.434.31.51.501.047.116.096.242.134.366.036.124.067.25.104.374.156.513.28 1.041.392 1.582.113.537.217 1.103.31 1.666l.238 1.488c.011.072.03.15.03.216.002.045-.01.096-.015.144-.079.697-.178 1.444-.262 2.135-.319-.674-.65-1.387-.974-2.08-.022-.045-.05-.092-.063-.136-.02-.068-.02-.15-.031-.228-.072-.529-.137-1.053-.208-1.586-.086-.628-.162-1.236-.242-1.865.005.143.03.286.046.429.12 1.009.227 2.027.341 3.046-.07-.142-.142-.297-.212-.447-.01-.02-.026-.044-.03-.062-.01-.029-.008-.069-.013-.106-.058-.507-.109-1.045-.161-1.553-.057-.567-.118-1.118-.158-1.668zm-2.104-.925l-.332-.738c-.086-.19-.194-.436-.291-.647l-.019-.047c-.017-.045-.02-.033.017-.047.023.023.03.058.042.087.305.661.621 1.334.932 2 .43.924.865 1.844 1.3 2.78.09.193.188.403.285.606.014.03.037.059.043.083.007.024.006.056.008.085.01.078.023.17.032.25-.68-1.454-1.342-2.934-2.017-4.412zm-.947-1.209c-.008-.017-.018-.049-.027-.07-.009-.022-.024-.041.012-.051.013-.003.016.018.019.023.034.075.066.157.098.235.256.622.523 1.265.779 1.894-.292-.664-.585-1.356-.881-2.03zm4.74 9.45c-.008-.018-.024-.038-.027-.055-.004-.032.011-.1.015-.14l.02-.15c.04.07.071.15.11.22-.012.097-.027.191-.035.293-.032-.047-.055-.11-.083-.168zm-.081.392c.039.069.069.148.106.219-.003.064-.015.118-.02.18-.036-.073-.067-.153-.102-.227-.001-.063.014-.11.016-.172zm-.929-3.578c.174.38.349.761.506 1.158-.011.013-.014-.01-.017-.012-.039-.052-.07-.128-.105-.192-.098-.181-.19-.368-.29-.563-.018-.036-.047-.074-.058-.11-.012-.038-.01-.091-.015-.137-.007-.051-.02-.096-.02-.144zm-.3-.39c-.01-.125-.03-.24-.04-.362.085.172.161.354.243.528.01.098.022.195.03.294-.08-.15-.152-.31-.233-.46zm.31 1.122c.01.13.026.254.039.383-.08-.157-.15-.323-.228-.481-.012-.127-.03-.25-.044-.376.082.154.15.319.232.474zm-.095.654c.073.147.138.303.21.45.003.045.013.083.013.128-.074-.157-.14-.326-.215-.484.001-.036-.01-.059-.008-.094zm.951 2.047a1.01 1.01 0 0 0-.02.157c-.171-.379-.33-.76-.501-1.148-.012-.025-.028-.05-.034-.073-.017-.06-.01-.125-.025-.177.197.41.383.83.58 1.24zm-.681-2.016c-.016-.142-.037-.281-.055-.422.277.567.548 1.141.826 1.71l-.035.285c-.25-.52-.49-1.05-.736-1.573zm1.155-.983c-.023.207-.048.425-.07.635-.035.303-.065.603-.095.892.07-.524.132-1.058.209-1.578.025.1.001.225-.009.34-.05.585-.12 1.187-.176 1.767a3.717 3.717 0 0 1-.086-.173.204.204 0 0 1-.023-.06c-.006-.035.009-.084.014-.13.079-.657.162-1.352.24-1.99.03.083.006.194-.004.297zm.16 3.708c.008-.07.023-.172.032-.238.116.233.233.48.348.722.016.036.043.067.05.099.01.036.005.08.008.122.009.115.014.236.02.364a194.27 194.27 0 0 1-.438-.93c-.025-.05-.028-.067-.02-.139zm.11-.892c.011-.094.02-.2.031-.295.017-.137.037-.271.048-.399.056.351.098.712.16 1.061.017.1.038.225.039.348-.084-.173-.17-.356-.255-.54-.012-.027-.032-.056-.034-.078-.005-.027.007-.062.011-.097zM8.923 19.178c-.235-.055-.459-.14-.678-.212.06.007.12.033.18.051l.368.11c.059.019.122.03.172.056-.005.012-.028 0-.042-.005zm26.167 2.286c-1.574-.263-5.58-.26-8.037-.23l-.4-.188c-1.049-.492-2.104-.98-3.145-1.472.177-.161.352-.326.533-.481.004 0 .005.002.007.003 1.55.573 3.97 1.408 5.555 1.947h.002l.005.002v-.002c.112.023.35-.175.442-.486.093-.31.055-.614-.05-.656 0 0-3.57-1.251-4.927-1.73.717-.638 1.466-1.238 2.195-1.858.732-.622 1.458-1.247 2.2-1.855.372-.306.741-.612 1.117-.913.75-.602 1.504-1.202 2.297-1.758.199-.138.4-.276.608-.407.13-.082.266-.167.398-.235.088-.044.18-.075.267-.116.004 0 .004-.004.007-.006.002-.015-.021-.004-.012-.018.015-.01.032-.015.044-.027.005-.056.036-.147-.005-.19-.051-.009-.089.028-.136.036-.009-.014.002-.017.008-.026-.197.106-.398.207-.6.305-.033.015-.086.031-.112.05-.013.009-.027.014-.04.02-.285.144-.573.284-.858.427-.266.134-.535.266-.799.407-.263.141-.53.272-.794.41-1.052.562-2.105 1.112-3.135 1.693.116-.09.225-.19.356-.264.131-.073.266-.145.4-.22.798-.444 1.58-.879 2.398-1.315.536-.284 1.074-.564 1.626-.849.464-.24.954-.493 1.448-.715.066-.03.158-.083.243-.07.01 0 .027.009.043.015.04.014.061.024.078.05a.372.372 0 0 1 .024.263c-.015.033-.033.032-.059.05l-.027.024c-.02.015-.045.026-.067.04-.139.076-.266.151-.396.234-.255.163-.509.335-.755.505-.083.057-.164.117-.247.176-.492.349-.964.715-1.432 1.088-.321.256-.646.518-.952.783l-.199.169c-.685.579-1.364 1.167-2.04 1.746-.455.389-.898.785-1.354 1.17-.005.008-.005.008.003.004 1.084-.916 2.18-1.818 3.29-2.71-.894.751-1.779 1.51-2.66 2.272-.002.013.014-.005.012-.004.108-.084.219-.186.334-.255-.34.348-.713.672-1.077 1.003-.274.247-.55.496-.815.747-.074.072-.165.146-.23.223-.008.008-.029.031-.016.036.104-.073.195-.16.289-.244.478-.415.956-.826 1.433-1.236.385-.331.771-.657 1.155-.983.193-.164.389-.323.583-.485.006-.005.009-.011.016-.016a.474.474 0 0 0 .055-.047c.364-.307.73-.607 1.097-.908.58-.481 1.188-.957 1.784-1.422a40.634 40.634 0 0 1 1.229-.907c.325-.225.636-.42.99-.612.124-.066.242-.121.31-.226a.604.604 0 0 0 .094-.422c-.023-.145-.087-.257-.207-.322a.5.5 0 0 1 .144.195c.034.077.064.18.047.298-.004.04-.025.088-.042.13a.408.408 0 0 1-.146.199c-.034.025-.068.055-.102.074-.074.043-.154.08-.23.118-.231.115-.448.253-.657.384-.146.091-.282.19-.432.266.3-.256.646-.497 1.006-.704.086-.05.18-.103.27-.158a.486.486 0 0 0 .204-.223.456.456 0 0 0-.012-.352.43.43 0 0 0-.219-.21c.144-.07.286-.148.419-.228.1-.062.202-.123.278-.203.028-.03.059-.053.082-.083.045-.058.074-.123.106-.192a.703.703 0 0 0 .063-.235c.005-.09-.023-.168-.051-.246a.646.646 0 0 0-.47-.422.764.764 0 0 0-.266-.025c-.793.1-1.452.341-2.106.57.129-.027.302-.104.434-.136-.447.163-.89.344-1.31.526-.255.108-.477.264-.702.402.204-.171.403-.345.591-.532.187-.186.353-.4.513-.61.076-.1.158-.208.234-.325a1.05 1.05 0 0 0 .177-.387.654.654 0 0 0 .008-.255.45.45 0 0 0-.11-.172.865.865 0 0 0-.157-.126c-.055-.037-.124-.084-.195-.086-.035-.002-.078.013-.121.02-.21.034-.35.124-.487.218l-.163.122c-.448.324-.842.663-1.249 1.015-.61.524-1.209 1.056-1.813 1.58a304.23 304.23 0 0 0-1.812 1.587c-.809.698-1.61 1.416-2.415 2.112-.608.528-1.207 1.063-1.808 1.59.438-.42.868-.85 1.31-1.268.11-.104.217-.211.329-.313.112-.102.213-.219.325-.32.113-.104.218-.216.329-.318.112-.105.221-.21.329-.317.86-.86 1.724-1.718 2.584-2.576 1.074-1.075 2.156-2.145 3.209-3.237.16-.165.318-.332.47-.498.054-.058.105-.116.145-.18a.811.811 0 0 0 .134-.44c0-.05 0-.098-.005-.148a.477.477 0 0 0-.153-.282.482.482 0 0 0-.296-.148.698.698 0 0 0-.287.024c-.171.046-.293.122-.437.208 0 0-.17.104-.245.164.054-.057.135-.125.205-.181 0-.01-.005-.012-.009-.015 0 0 .001-.003.005-.006.16-.165.193-.396.07-.531-.128-.144-.382-.127-.567.041-.03.026-.075.073-.109.113-.292.307-.542.593-.843.892-.083.083-.157.169-.245.246-.267.233-.53.465-.792.697-.176.156-.353.307-.527.461a83.2 83.2 0 0 1-.53.463c-.265.23-.524.468-.788.696-.086.077-.176.15-.257.23.217-.159.436-.314.652-.472-.386.338-.777.674-1.168 1.01-.393.335-.776.683-1.168 1.018-.769.66-1.528 1.344-2.282 2.015-.01.01-.026.023-.038.024a199.93 199.93 0 0 0-.024-1.551c0-.07-.139-.126-.31-.126a.652.652 0 0 0-.134.013c.019-.76.034-1.518.055-2.277v-.005c-.004-.164-.204-.297-.45-.297h-.037a.62.62 0 0 0-.035.004c-.023.003-.047.006-.07.012a.294.294 0 0 0-.062.017.574.574 0 0 0-.112.054c-.016.01-.03.022-.047.034-.012.012-.027.025-.037.039a.166.166 0 0 0-.026.043.396.396 0 0 0-.023.1c0 .007 0 .011.002.016v.084a.225.225 0 0 1 .002.04l.002.02a.27.27 0 0 0 0 .023c0 .008 0 .015.002.024v.025l.001.027.002.028c0 .01 0 .02.002.03v.032l.002.034.002.034c0 .013 0 .025.002.037v.038l.003.04.003.04V9.7l.004.044c0 .017 0 .03.002.046l.001.046c0 .016.002.03.003.047 0 .018 0 .033.002.05l.003.05.003.05c0 .018 0 .035.003.051l.001.053.003.053.002.055.003.055c0 .018.003.037.003.056l.003.056.003.056.001.057.004.058.003.058.002.058c0 .02.002.04.004.059l.002.06.004.059.002.061.002.061c.003.02.003.04.004.06 0 .02.002.04.004.06l.002.06a2.009 2.009 0 0 1 .005.124l.003.063a1.925 1.925 0 0 0 .006.124l.004.06a18.975 18.975 0 0 0 .01.247l.005.06c0 .021 0 .04.003.06l.001.06.004.06.002.058.003.059c0 .02.002.038.003.058l.003.057c0 .02.002.038.003.057l.003.055.002.056.002.055.003.054.002.053c.002.018.002.036.002.053l.002.053.004.052.002.053.002.05.002.052c0 .017.003.034.003.05V12.998l.002.006v.006l-.15-.309c-.017-.039-.044-.089-.046-.125-.016-.209-.02-.42-.03-.63-.015-.21-.024-.42-.037-.63-.025-.42-.05-.842-.07-1.262-.055-1.161-.14-2.312-.18-3.476-.002-.053-.008-.105-.007-.157 0-.05.01-.101.015-.152.129-1.167.386-3.517.386-3.576.013-.464-.225-.846-.535-.855-.309-.013-.574.355-.595.819-.003.091.1 1.732.141 2.579.003.066.015.133.012.198-.007.13-.035.25-.048.377-.088-.63-.19-1.26-.307-1.886a54.545 54.545 0 0 0-.368-1.813 3.141 3.141 0 0 0-.353-.907c-.159-.272-.4-.545-.726-.609a.84.84 0 0 0-.677.16c-.198.152-.362.45-.409.69-.059.315.009.648.054.96.11.745.17 1.498.27 2.245.058.42.104.84.155 1.262-.103-.207-.2-.417-.296-.627-.68-1.483-1.374-2.957-2.052-4.435-.019-.013-.009-.006-.01-.01l-.005.002c.293.656.607 1.327.891 2.005-.334-.645-.638-1.32-.958-1.978-.202.098-.385.169-.585.266.016-.002-.007.002.01 0 .83 1.917 1.683 3.826 2.505 5.743.257.6.52 1.207.772 1.81.015.038.039.074.045.116a1102.463 1102.463 0 0 0-1.979-4.25 249.57 249.57 0 0 1 1.417 3.19c.014.033.032.065.038.1-.612-1.288-1.23-2.572-1.84-3.863-.01-.02-.011-.026-.016-.032-.047.016-.077.04-.12.049-.391-.942-1.14-2.75-1.181-2.826-.19-.411-.57-.647-.882-.53-.34.127-.404.548-.345.858.045.24.146.466.233.692.09.24.182.478.273.716l.077.201c.022.057.038.15.075.197-.18-.231-.407-.349-.586-.278-.225.09-.3.45-.188.843-.167-.222-.382-.337-.549-.271-.231.093-.287.5-.124.907l.016.037c.02.042.036.071.05.104.17.436.342.87.512 1.303-.134-.226-.261-.468-.396-.697a.517.517 0 0 0-.097-.121.296.296 0 0 0-.33-.047.286.286 0 0 0-.172.266c0 .066.023.122.044.175.019.052.044.101.065.154.254.632.517 1.22.78 1.846a226.388 226.388 0 0 0 1.585 3.674c.335.762.673 1.526 1.01 2.278.022.05.05.1.063.148-.39-.836-.777-1.673-1.171-2.505.488 1.122.97 2.266 1.469 3.378.015.034.031.065.039.103-.072-.017-.14-.044-.209-.068-.068-.024-.14-.042-.202-.07-.061-.028-1.472-.732-1.581-.79-.368-.195-4.855-2.115-5.038-2.18l-.063-.029a.422.422 0 0 0-.639.435c-.186-.068-.374-.137-.563-.203l-.57-.205c-.092-.033-.22.08-.284.256a.493.493 0 0 0-.029.268 6.376 6.376 0 0 1-.676-.19c-.12-.042-.24-.086-.364-.122a4.275 4.275 0 0 0-.391-.098 1.474 1.474 0 0 0-.44-.038c-.15.017-.316.065-.419.183a.495.495 0 0 0-.088.458c.04.157.117.288.208.42a1.269 1.269 0 0 0 .188.215c.042.04.084.077.127.113a1.986 1.986 0 0 0 .312.216 3.852 3.852 0 0 0 .66.309c.09.033.184.065.278.095.022.007.045.016.068.022a10.012 10.012 0 0 1-.302-.05c-.07.244-.177.607-.18.618l.007.003s4.298 1.833 6.471 2.729c-1.268-.413-2.56-.796-3.833-1.206a103.48 103.48 0 0 0-1.28-.4c-.847-.257-1.75-.499-2.728-.63-.253-.034-.512-.051-.768-.07-.125-.01-.25-.027-.376-.044l-.376-.045c-.063-.009-.123-.012-.179-.029a6.232 6.232 0 0 1-.162-.05c-.26-.086-.537-.177-.797-.255a1.69 1.69 0 0 0-.14-.038.141.141 0 0 0-.028-.01c-.17-.033-.343.132-.39.37-.046.234.05.45.216.488a.302.302 0 0 0 .062.013c.39.05.773.096 1.157.144.092.011.179.047.269.075.266.08.544.16.795.246-.051.116-.078.246-.117.372l-.087.277-.015.06c.291.078.58.168.869.255 2.039.608 4.077 1.21 6.107 1.82l-.169.528c-.628-.213-1.256-.438-1.886-.65-.315-.105-.63-.22-.944-.324-.646-.215-1.32-.461-1.95-.666-.003-.002-.067-.025-.03-.009.031.017.075.029.117.045.552.195 1.088.383 1.636.582.273.1.549.195.807.302.034.014.073.024.101.051-.264-.061-.522-.14-.779-.22-.509-.155-1.016-.317-1.522-.473-.258-.078-.506-.166-.751-.251-.281-.095-.559-.192-.838-.288-.133-.05-.407-.142-.708-.245-.445-.154-.894-.31-1.332-.464-.03-.011-.056-.03-.087-.04-.137-.043-.296.083-.351.277-.055.19.007.375.138.42a.376.376 0 0 0 .05.015c.044.01.07.016.112.029 1.053.28 2.1.591 3.137.883.109.032.217.061.324.098.522.183 1.05.375 1.566.556-.262-.064-.519-.133-.78-.2-.003.001-.003.005.004.005.338.092.67.183 1 .275.159.042.314.108.47.163.158.056.316.11.473.164.63.222 1.259.432 1.89.654.629.222 1.258.442 1.891.654.631.211 1.26.435 1.894.65-1.566 1.42-3.14 2.83-4.537 4.412-.26.295-.522.605-.759.916-.028.038-.049.08-.082.106-.067.056-.139.104-.21.165 0 0-.346.252-.407.343-.062.09.03.28.21.408.18.128.38.154.452.062h.002l.003-.004v-.001l.004-.008c.084-.177.192-.325.3-.48.028-.041.05-.082.085-.113.034-.031.071-.06.11-.09l.222-.176c2.04-1.632 4.068-3.266 6.095-4.91.035-.028.098-.084.117-.085.015-.001.046.015.068.023.07.026.135.047.204.065-.479.533-.972 1.05-1.449 1.582-.12.133-.241.264-.36.397-.243.267-.48.532-.72.797-.12.134-.24.27-.345.416.032 0 .064-.055.09-.063-.86.919-2.644 2.695-2.643 2.7.053.048.083.082.133.131-.417.39-.832.78-1.252 1.166.042.04.08.082.117.125-.165.144-.334.286-.504.432-.02.015-.078.065-.078.065-.092.079-.022.314.157.527.152.178.33.281.437.264l.008.004c-.278.28-.638.594-.916.884l-.13.13c-.096.107-.145.406-.083.568.012.032.043.114.087.152-.24.206-.462.384-.703.587a2.024 2.024 0 0 0-.053.05c-.062.083-.038.222.075.372.118.155.286.23.374.163.003-.001.004-.005.006-.008a.355.355 0 0 0 .06.236c.074.114.186.176.27.151a.075.075 0 0 0 .028-.012.133.133 0 0 0 .036-.037c.792-.63 1.582-1.264 2.37-1.893.269-.215.534-.434.806-.642-.252.355-.489.705-.736 1.05-.024.032-.048.054-.079.085-.106.107-.216.213-.328.325-.216.216-.445.423-.662.639-.182.182-.372.362-.552.541l-.101.099c-.18.191-.173.493.002.649l.014.01.015.008c.008.007.019.013.028.02l.03.016c.01.006.02.012.03.015.012.005.021.009.032.012a.326.326 0 0 0 .137.018l.036-.001a.388.388 0 0 1 .037-.006l.035-.009c.012-.002.024-.008.036-.011a.199.199 0 0 0 .035-.012 1.57 1.57 0 0 0 .066-.036c.011-.006.022-.014.032-.021l.032-.026.03-.025c.012-.013.025-.022.036-.034a.085.085 0 0 1 .009-.011l.014-.02c.006-.005.01-.011.015-.017l.015-.021.017-.021.02-.026a.642.642 0 0 1 .02-.026c.006-.011.015-.02.023-.03l.023-.034a.436.436 0 0 0 .026-.036.519.519 0 0 0 .027-.037l.03-.04a.802.802 0 0 1 .03-.043c.011-.015.023-.03.032-.045l.035-.046c.01-.017.022-.032.034-.049.01-.016.023-.033.036-.05.011-.016.025-.033.036-.051.013-.017.024-.035.038-.051l.038-.053a.604.604 0 0 1 .04-.054c.012-.02.026-.038.04-.055l.038-.056.041-.056.041-.057a.622.622 0 0 1 .04-.055.502.502 0 0 1 .042-.057l.04-.058.041-.056c.012-.02.027-.037.039-.055l.04-.056a1.61 1.61 0 0 0 .04-.055c.011-.018.025-.035.037-.054l.038-.053.036-.05.036-.05.034-.048.034-.048.034-.047.033-.046c.01-.016.022-.03.032-.045.086-.123.17-.253.273-.349.108-.098.21-.204.314-.309.313-.312.636-.613.948-.924.311-.313.637-.614.947-.923.103-.104.213-.203.317-.307.208-.207.426-.406.634-.613.104-.105.214-.203.317-.306.21-.208.422-.41.634-.612.32-.303.63-.618.955-.914.053-.05.106-.102.157-.154.158-.157.322-.306.477-.462.106-.105.207-.208.313-.309.054-.049.116-.09.173-.136.342-.282.691-.565 1.03-.843.403-.329.808-.652 1.21-.978a1385.333 1385.333 0 0 0-8.468 8.78c-.003.01-.013.011-.017.02.011-.003.012-.012.02-.016a230.34 230.34 0 0 0 2.352-2.328c.49-.488.973-.985 1.458-1.469.294-.295.579-.592.873-.884.39-.39.769-.792 1.158-1.182.782-.782 1.546-1.577 2.326-2.358l1.116-1.118a.576.576 0 0 1 .058-.044c.02.063.061.104.078.16.016.053.022.118.03.177.028.144.054.289.08.434.146 1.281.359 3.124.38 3.272.07.5.143.997.215 1.495.166 1.139.971 5.687 1.117 6.001.072.153.21.302.387.32.177.016.38-.164.403-.343.03-.228-.062-.457-.062-.685v-1.715c-.003-.175 0-.353-.006-.529a18.618 18.618 0 0 0-.049-.952c-.05-.639-.148-1.267-.23-1.904-.02-.16-.111-1.179-.116-1.324 1.006 1.97 3.015 5.912 3.015 5.912.046.068.215.064.392-.011.187-.08.31-.21.275-.288 0-.002 0-.002-.002-.003-.802-1.994-1.6-3.99-2.415-5.969.534.698 1.065 1.42 1.593 2.137.035.048.068.088.098.132.032.05.046.106.07.166.316.77.672 1.528 1.015 2.246a22.59 22.59 0 0 1-1.148-2.336c-.001-.003-.004-.004-.004.003.217.55.429 1.103.666 1.636.236.532.505 1.04.8 1.508.14.224.29.46.469.68.123.155.277.31.428.439.142.124.404.237.652.172a.58.58 0 0 0 .332-.242.687.687 0 0 0 .122-.446 1.558 1.558 0 0 0-.106-.474c.16-.072.325-.148.479-.22.02-.01.05-.014.066-.035-.317-.67-.65-1.34-.963-2.016-.316-.674-.649-1.34-.964-2.016-.315-.675-.644-1.345-.963-2.016-.319-.672-.66-1.33-.974-2 .123.046.257.079.376.129a561.665 561.665 0 0 0 4.302 8.745c.003.009.013.009.003 0-1.348-2.893-2.716-5.788-4.064-8.671 1.526.502 3.06.995 4.594 1.489.006 0 .008-.005 0-.003-.774-.284-1.553-.548-2.33-.824-.777-.276-1.555-.55-2.337-.817 0-.006-.004-.008-.008-.008-.08-.183-.178-.37-.25-.545.686.223 1.391.444 2.083.657.098.032.197.066.297.094 1.004.302 2.01.613 3.026.89.202.053.396.127.595.187.397.123.787.259 1.177.387.393.132.782.264 1.164.405.29.105.579.205.858.325l.202.113c.019.006.038.006.057.006h.003-.002c.209-.01.476-.37.625-.857.162-.537.118-1.055-.096-1.122 0 0-.122-.02-.132-.023.05-.236.026-.42-.113-.462-.013-.004-3.276-1.052-4.868-1.556-.229-.072-.46-.141-.691-.214-.902-.285-1.806-.565-2.711-.846l.3-.006c.176.057 1.439.458 1.827.58.651.208 1.287.399 1.926.605.612.196 1.852.598 1.862.601 0 0 .022.007.044-.005a.327.327 0 0 0 .137-.186c.032-.105.026-.203 0-.247 0 0-.007-.02-.031-.027l-.039-.01c-.176-.063-.352-.126-.525-.185-.608-.208-1.211-.408-1.812-.62a96.85 96.85 0 0 0-1.206-.41c-.144-.048-.286-.097-.428-.146 3.968-.138 8.198-.445 6.576-.716zM.706 16.853c-.016.027.004.029.019.036.015.006.043.011.055.014.544.158 1.119.323 1.652.475.019.005.033.017.055.012-.593-.18-1.19-.355-1.777-.537H.706z" mask="url(#b)"/>
    </g>
    <path fill="#FFF" d="M54.966 15.882c4.064 1.233 6.749 3.155 6.749 7.362 0 5.044-4.68 8.344-9.614 8.344-4.279 0-8.307-1.777-10.699-4.86l3.082-3.593c2.322 2.757 4.863 3.991 7.726 3.991 2.36 0 4.463-1.125 4.463-3.302 0-1.74-.944-2.61-3.155-3.263l-4.499-1.342c-3.772-1.125-6.312-3.012-6.312-7.073 0-4.317 3.883-7.944 9.213-7.944 3.954 0 7.183 1.488 9.36 3.736l-2.903 3.809c-1.812-1.922-3.99-3.084-6.53-3.084-2.392 0-4.025 1.27-4.025 3.084 0 1.523 1.052 2.32 2.904 2.865l4.24 1.27zM73.864 27.27c2.72 0 4.535-2.285 4.535-4.823 0-2.54-1.814-4.824-4.535-4.824-2.72 0-4.533 2.285-4.533 4.824 0 2.538 1.813 4.824 4.533 4.824zM69.476 16.1h.073c.833-1.451 2.827-2.794 5.294-2.794 4.68 0 8.38 3.773 8.38 9.141 0 5.367-3.7 9.141-8.38 9.141-2.467 0-4.46-1.34-5.294-2.794h-.073v9.25h-4.86V13.74h4.86V16.1zM96.352 23.608l-3.264.288c-2.104.18-3.408.726-3.408 2.177 0 1.233 1.231 1.924 2.646 1.924 2.213 0 4.026-1.415 4.026-3.882v-.507zm-4.099-2.903l4.099-.326c0-1.776-1.233-2.865-3.664-2.865-1.812 0-3.735.87-5.04 1.777L85.98 15.7c1.522-1.124 4.497-2.394 7.545-2.394 4.86 0 7.579 2.866 7.579 7.325v10.52h-4.678V28.94h-.073c-.544 1.126-2.576 2.65-5.113 2.65-3.41 0-6.096-1.924-6.096-5.37 0-3.41 3.484-5.223 7.11-5.514zM109.59 22.302v8.85h-4.86v-17.41h4.86v2.974h.074c.688-1.813 2.466-3.264 4.462-3.264.398 0 .833.036 1.16.108v5.006a5.647 5.647 0 0 0-1.888-.327c-2.247 0-3.807 1.596-3.807 4.063M123.047 22.266v8.886h-4.86V4.674h4.86v16.722l6.749-7.655h5.657l-7.256 7.98 7.473 9.43h-5.84zM178.068 21.742c0-.592-.092-1.172-.278-1.74a4.537 4.537 0 0 0-.814-1.5 4.148 4.148 0 0 0-1.353-1.057c-.543-.271-1.173-.407-1.888-.407-.693 0-1.31.136-1.853.407a4.42 4.42 0 0 0-1.389 1.075c-.383.444-.679.95-.888 1.518a4.969 4.969 0 0 0 0 3.482c.21.568.505 1.074.888 1.519.382.444.846.802 1.39 1.074.542.272 1.16.408 1.852.408.715 0 1.345-.136 1.888-.408a4.03 4.03 0 0 0 1.353-1.074c.357-.445.629-.957.814-1.537.186-.58.278-1.167.278-1.76m5.89 0c0 1.284-.198 2.519-.593 3.704a9.559 9.559 0 0 1-1.722 3.13 8.52 8.52 0 0 1-2.76 2.167c-1.087.543-2.322.815-3.704.815a7.745 7.745 0 0 1-3.223-.686c-1.012-.456-1.801-1.079-2.37-1.87h-.075v10.927h-6.074V12.593h5.779v2.26h.11c.568-.741 1.352-1.39 2.353-1.945.999-.555 2.18-.833 3.537-.833 1.334 0 2.543.259 3.63.777a8.212 8.212 0 0 1 2.76 2.112 9.622 9.622 0 0 1 1.74 3.093c.408 1.173.612 2.401.612 3.685M230.633 17.364v7.06c0 .866.167 1.516.502 1.95.333.432.934.649 1.802.649.297 0 .613-.024.947-.075.334-.049.613-.123.836-.222l.074 4.458c-.421.149-.954.278-1.597.39-.645.111-1.289.167-1.932.167-1.24 0-2.279-.155-3.12-.464-.842-.31-1.517-.755-2.026-1.338a5.242 5.242 0 0 1-1.096-2.08c-.222-.805-.334-1.703-.334-2.694v-7.801h-2.972v-4.57h2.935V7.928h5.98v4.866h4.348v4.57h-4.347zM219.438 12.274a7.406 7.406 0 0 0-.733-.038c-1.154 0-2.24.32-3.073.886-.822.557-1.528 1.172-2.005 2.131h-.076v-2.73h-5.942v18.73h6.168V21.65c0-.376.075-.813.225-1.313.151-.5.396-.963.734-1.389.338-.424.79-.787 1.354-1.086.564-.3 1.26-.451 2.088-.451.25 0 .507.013.771.038.26.025.664.12.94.195V12.35c-.128-.026-.278-.058-.451-.076M158.937 17.693a10.447 10.447 0 0 0-2.645-1.43 86.206 86.206 0 0 0-2.793-.985 35.49 35.49 0 0 1-1.677-.575 7.3 7.3 0 0 1-1.285-.613c-.36-.223-.633-.483-.819-.78-.186-.297-.278-.668-.278-1.114 0-.519.116-.946.353-1.281.236-.334.528-.606.875-.816.348-.21.738-.354 1.174-.428a7.635 7.635 0 0 1 1.285-.112c.819 0 1.668.205 2.551.614.88.408 1.598.959 2.148 1.647 0 0 .148.171.375.44l3.682-4.583-.073-.071c-1.161-1.061-2.453-1.921-3.997-2.465-1.547-.544-3.064-.817-4.55-.817-1.237 0-2.462.155-3.676.465a10.044 10.044 0 0 0-3.267 1.466 7.737 7.737 0 0 0-2.34 2.563c-.594 1.04-.891 2.29-.891 3.75 0 1.188.191 2.197.576 3.026.383.83.89 1.536 1.522 2.117a8.252 8.252 0 0 0 2.154 1.43c.804.371 1.628.692 2.47.965.866.273 1.64.526 2.32.762.681.235 1.25.495 1.709.78.457.284.81.6 1.058.946.248.347.371.768.371 1.262 0 .52-.1.966-.297 1.338a2.413 2.413 0 0 1-.799.89 3.399 3.399 0 0 1-1.169.483c-.445.1-.904.15-1.374.15-1.039 0-2.086-.266-3.138-.8-1.053-.531-1.9-1.193-2.543-1.986l-.355-.447-4.093 4.349.288.331c1.164 1.213 2.624 2.148 4.383 2.804 1.757.655 3.576.984 5.458.984 1.287 0 2.538-.174 3.75-.52 1.213-.346 2.29-.878 3.231-1.597a7.806 7.806 0 0 0 2.247-2.73c.556-1.1.836-2.407.836-3.917 0-1.312-.262-2.407-.783-3.287a7.51 7.51 0 0 0-1.974-2.208"/>
    <path fill="#FF5E5B" d="M195.673 11.39c-5.731 0-10.377 4.645-10.377 10.376s4.646 10.377 10.377 10.377c5.731 0 10.377-4.646 10.377-10.377 0-5.73-4.646-10.377-10.377-10.377m0 5.782a4.6 4.6 0 0 1 4.595 4.595 4.6 4.6 0 0 1-4.595 4.596 4.601 4.601 0 0 1-4.596-4.596 4.601 4.601 0 0 1 4.596-4.595"/>
  </g>
</svg>